{
.appVersion = "3343";
.formatVersion = 3;
DisplayStrings = (
"Horn Re"
);
date = "2025-02-09 20:11:06 +0000";
familyName = Castello;
fontMaster = (
{
iconName = Bold;
id = m01;
metricValues = (
{
over = 16;
pos = 800;
},
{
over = 16;
pos = 700;
},
{
over = 16;
pos = 500;
},
{
over = -16;
},
{
over = -16;
pos = -200;
},
{
}
);
name = Bold;
userData = {
GSOffsetHorizontal = -25;
GSOffsetKeepCompatible = 1;
GSOffsetVertical = -15;
};
}
);
glyphs = (
{
glyphname = A;
lastChange = "2025-02-16 21:23:13 +0000";
layers = (
{
background = {
shapes = (
{
closed = 1;
nodes = (
(5,0,l),
(145,0,l),
(259,700,l),
(129,700,l)
);
},
{
closed = 1;
nodes = (
(160,145,l),
(300,145,l),
(300,255,l),
(160,255,l)
);
},
{
closed = 1;
nodes = (
(201,700,l),
(315,0,l),
(455,0,l),
(331,700,l)
);
}
);
};
backgroundImage = {
crop = (9.091,306.591,136.364,227.273);
imagePath = "png/ABCDE.png";
locked = 1;
pos = (-110,-1549);
scale = (4.4,4.4);
};
layerId = m01;
shapes = (
{
closed = 1;
nodes = (
(5,0,l),
(145,0,l),
(259,700,l),
(129,700,l)
);
},
{
closed = 1;
nodes = (
(160,145,l),
(300,145,l),
(300,255,l),
(160,255,l)
);
},
{
closed = 1;
nodes = (
(201,700,l),
(315,0,l),
(455,0,l),
(331,700,l)
);
}
);
width = 460;
}
);
metricLeft = "=O*.25";
metricRight = "=O*.25";
unicode = 65;
},
{
glyphname = B;
lastChange = "2025-03-23 23:55:03 +0000";
layers = (
{
anchors = (
{
name = bottom;
pos = (223,0);
},
{
name = center;
pos = (73,175);
},
{
name = top;
pos = (223,700);
}
);
background = {
hints = (
{
name = _corner.BASE;
scale = (1.08,1.08);
type = Corner;
},
{
name = _corner.BASE;
scale = (1.08,1.08);
type = Corner;
},
{
name = _corner.BASE;
scale = (0.3,0.3);
type = Corner;
},
{
name = _corner.BASE;
options = 2;
scale = (-0.3,0.3);
type = Corner;
},
{
name = _corner.BASE;
scale = (0.9,0.9);
type = Corner;
},
{
name = _corner.BASE;
scale = (1.08,1.08);
type = Corner;
},
{
name = _corner.BASE;
scale = (0.3,0.3);
type = Corner;
},
{
name = _corner.BASE;
options = 2;
scale = (-0.3,0.3);
type = Corner;
},
{
name = _corner.BASE;
scale = (1.08,1.08);
type = Corner;
},
{
name = _corner.BASE;
scale = (0.9,0.9);
type = Corner;
},
{
name = _corner.BASE;
scale = (0.3,0.3);
type = Corner;
},
{
name = _corner.BASE;
options = 2;
scale = (-0.3,0.3);
type = Corner;
},
{
name = _corner.ROUND;
origin = (0,1);
scale = (1.08,1.08);
type = Corner;
},
{
name = _segment.DOUBLECUT;
origin = (0,3);
type = Segment;
},
{
name = _corner.ROUND;
origin = (0,4);
scale = (0.8,0.8);
type = Corner;
},
{
name = _corner.ROUND;
origin = (1,0);
scale = (0.3,0.3);
type = Corner;
},
{
name = _corner.ROUND;
options = 2;
origin = (1,3);
scale = (-0.3,0.3);
type = Corner;
},
{
name = _corner.ROUND;
origin = (2,0);
scale = (0.3,0.3);
type = Corner;
},
{
name = _corner.ROUND;
options = 2;
origin = (2,3);
scale = (-0.3,0.3);
type = Corner;
}
);
shapes = (
{
closed = 1;
nodes = (
(25,0,l),
(425,0,l),
(425,248,l),
(425,452,l),
(425,700,l),
(25,700,l)
);
},
{
closed = 1;
nodes = (
(275,405,l),
(175,405,l),
(175,590,l),
(275,590,l)
);
},
{
closed = 1;
nodes = (
(275,110,l),
(175,110,l),
(175,295,l),
(275,295,l)
);
}
);
};
backgroundImage = {
crop = (134.091,306.591,136.364,227.273);
imagePath = "png/ABCDE.png";
pos = (-667,-1549);
scale = (4.4,4.4);
};
hints = (
{
name = _corner.ROUND;
origin = (0,1);
scale = (0.8,0.8);
type = Corner;
},
{
name = _corner.ROUND;
origin = (0,4);
scale = (1.08,1.08);
type = Corner;
},
{
name = _corner.ROUND;
origin = (1,0);
scale = (0.3,0.3);
type = Corner;
},
{
name = _corner.ROUND;
options = 2;
origin = (1,3);
scale = (-0.3,0.3);
type = Corner;
},
{
name = _corner.ROUND;
origin = (0,1);
scale = (1.08,1.08);
type = Corner;
},
{
name = _corner.ROUND;
origin = (0,4);
scale = (0.8,0.8);
type = Corner;
},
{
name = _corner.ROUND;
origin = (2,0);
scale = (0.3,0.3);
type = Corner;
},
{
name = _corner.ROUND;
options = 2;
origin = (2,3);
scale = (-0.3,0.3);
type = Corner;
},
{
name = _segment.DOUBLECUT;
origin = (0,3);
type = Segment;
}
);
layerId = m01;
shapes = (
{
closed = 1;
nodes = (
(25,0,l),
(425,0,l),
(425,248,l),
(425,452,l),
(425,700,l),
(25,700,l)
);
},
{
closed = 1;
nodes = (
(275,405,l),
(175,405,l),
(175,590,l),
(275,590,l)
);
},
{
closed = 1;
nodes = (
(275,110,l),
(175,110,l),
(175,295,l),
(275,295,l)
);
}
);
width = 445;
}
);
metricLeft = H;
metricRight = O;
unicode = 66;
},
{
glyphname = C;
lastChange = "2025-02-27 22:10:30 +0000";
layers = (
{
background = {
hints = (
{
name = _corner.ROUND;
type = Corner;
},
{
name = _corner.ROUND;
scale = (1.08,1.08);
type = Corner;
},
{
name = _corner.ROUND;
scale = (1.08,1.08);
type = Corner;
},
{
name = _corner.ROUND;
type = Corner;
},
{
name = _corner.ROUND;
scale = (0.3,0.3);
type = Corner;
},
{
name = _corner.ROUND;
options = 2;
scale = (-0.3,0.3);
type = Corner;
},
{
name = _corner.ROUND;
scale = (0.3,0.3);
type = Corner;
},
{
name = _corner.ROUND;
options = 2;
scale = (-0.3,0.3);
type = Corner;
}
);
shapes = (
{
closed = 0;
nodes = (
(420,255,l),
(270,255,l)
);
}
);
};
backgroundImage = {
crop = (254.545,306.591,136.364,227.273);
imagePath = "png/ABCDE.png";
locked = 1;
pos = (-1199,-1550);
scale = (4.4,4.4);
};
hints = (
{
name = _corner.ROUND;
origin = (0,0);
type = Corner;
},
{
name = _corner.ROUND;
origin = (0,1);
scale = (1.08,1.08);
type = Corner;
},
{
name = _corner.ROUND;
origin = (0,10);
scale = (1.08,1.08);
type = Corner;
},
{
name = _corner.ROUND;
origin = (0,11);
type = Corner;
},
{
name = _corner.ROUND;
origin = (0,4);
scale = (0.3,0.3);
type = Corner;
},
{
name = _corner.ROUND;
options = 2;
origin = (0,5);
scale = (-0.3,0.3);
type = Corner;
},
{
name = _corner.ROUND;
origin = (0,6);
scale = (0.3,0.3);
type = Corner;
},
{
name = _corner.ROUND;
options = 2;
origin = (0,7);
scale = (-0.3,0.3);
type = Corner;
}
);
layerId = m01;
shapes = (
{
closed = 1;
nodes = (
(20,0,l),
(420,0,l),
(420,255,l),
(270,255,l),
(270,110,l),
(170,110,l),
(170,590,l),
(270,590,l),
(270,445,l),
(420,445,l),
(420,700,l),
(20,700,l)
);
}
);
width = 435;
}
);
metricLeft = O;
metricRight = "=O*.75";
unicode = 67;
},
{
glyphname = D;
lastChange = "2025-03-23 23:55:14 +0000";
layers = (
{
backgroundImage = {
crop = (372.727,306.591,136.364,227.273);
imagePath = "png/ABCDE.png";
locked = 1;
pos = (-1717,-1549);
scale = (4.4,4.4);
};
hints = (
{
name = _corner.ROUND;
origin = (0,1);
scale = (1.08,1.08);
type = Corner;
},
{
name = _corner.ROUND;
origin = (0,2);
scale = (1.08,1.08);
type = Corner;
},
{
name = _corner.ROUND;
origin = (1,0);
scale = (0.3,0.3);
type = Corner;
},
{
name = _corner.ROUND;
options = 2;
origin = (1,3);
scale = (-0.3,0.3);
type = Corner;
}
);
layerId = m01;
shapes = (
{
closed = 1;
nodes = (
(25,0,l),
(425,0,l),
(425,700,l),
(25,700,l)
);
},
{
closed = 1;
nodes = (
(275,110,l),
(175,110,l),
(175,590,l),
(275,590,l)
);
}
);
width = 445;
}
);
metricLeft = H;
metricRight = O;
unicode = 68;
},
{
glyphname = E;
lastChange = "2025-03-23 23:55:34 +0000";
layers = (
{
background = {
shapes = (
{
closed = 1;
nodes = (
(25,0,l),
(175,0,l),
(175,700,l),
(25,700,l)
);
},
{
closed = 1;
nodes = (
(175,295,l),
(315,295,l),
(315,405,l),
(175,405,l)
);
},
{
closed = 1;
nodes = (
(175,590,l),
(315,590,l),
(315,700,l),
(175,700,l)
);
},
{
closed = 1;
nodes = (
(175,0,l),
(315,0,l),
(315,110,l),
(175,110,l)
);
}
);
};
backgroundImage = {
crop = (481.818,306.591,112.182,227.273);
imagePath = "png/ABCDE.png";
locked = 1;
pos = (-2249,-1549);
scale = (4.4,4.4);
};
layerId = m01;
shapes = (
{
closed = 1;
nodes = (
(25,0,l),
(175,0,l),
(175,700,l),
(25,700,l)
);
},
{
closed = 1;
nodes = (
(175,295,l),
(315,295,l),
(315,405,l),
(175,405,l)
);
},
{
closed = 1;
nodes = (
(175,590,l),
(315,590,l),
(315,700,l),
(175,700,l)
);
},
{
closed = 1;
nodes = (
(175,0,l),
(315,0,l),
(315,110,l),
(175,110,l)
);
}
);
width = 335;
}
);
metricLeft = H;
metricRight = O;
unicode = 69;
},
{
glyphname = F;
lastChange = "2025-02-13 20:29:10 +0000";
layers = (
{
backgroundImage = {
crop = (9.024,283.902,146.341,243.902);
imagePath = "png/FGHIJ.png";
pos = (-166,-1364);
scale = (4.1,4.1);
};
layerId = m01;
shapes = (
{
closed = 1;
nodes = (
(25,0,l),
(175,0,l),
(175,700,l),
(25,700,l)
);
},
{
closed = 1;
nodes = (
(175,295,l),
(315,295,l),
(315,405,l),
(175,405,l)
);
},
{
closed = 1;
nodes = (
(175,590,l),
(315,590,l),
(315,700,l),
(175,700,l)
);
}
);
width = 335;
}
);
metricLeft = H;
metricRight = O;
unicode = 70;
},
{
glyphname = G;
lastChange = "2025-03-01 22:50:51 +0000";
layers = (
{
backgroundImage = {
crop = (117.561,283.902,146.341,243.902);
imagePath = "png/FGHIJ.png";
locked = 1;
pos = (-564,-1364);
scale = (4.1,4.1);
};
hints = (
{
name = _corner.ROUND;
origin = (0,0);
type = Corner;
},
{
name = _corner.ROUND;
origin = (0,1);
scale = (1.08,1.08);
type = Corner;
},
{
name = _corner.ROUND;
origin = (0,6);
scale = (0.3,0.3);
type = Corner;
},
{
name = _corner.ROUND;
options = 2;
origin = (0,7);
scale = (-0.3,0.3);
type = Corner;
},
{
name = _corner.ROUND;
origin = (0,8);
scale = (0.3,0.3);
type = Corner;
},
{
name = _corner.ROUND;
options = 2;
origin = (0,9);
scale = (-0.3,0.3);
type = Corner;
},
{
name = _corner.ROUND;
origin = (0,12);
scale = (1.08,1.08);
type = Corner;
},
{
name = _corner.ROUND;
origin = (0,13);
type = Corner;
}
);
layerId = m01;
shapes = (
{
closed = 1;
nodes = (
(20,0,l),
(420,0,l),
(420,365,l),
(220,365,l),
(220,255,l),
(270,255,l),
(270,110,l),
(170,110,l),
(170,590,l),
(270,590,l),
(270,445,l),
(420,445,l),
(420,700,l),
(20,700,l)
);
}
);
width = 440;
}
);
metricLeft = O;
metricRight = O;
unicode = 71;
},
{
glyphname = H;
lastChange = "2025-02-16 21:26:52 +0000";
layers = (
{
backgroundImage = {
crop = (240.732,283.902,146.341,243.902);
imagePath = "png/FGHIJ.png";
locked = 1;
pos = (-1012,-1364);
scale = (4.1,4.1);
};
layerId = m01;
shapes = (
{
closed = 1;
nodes = (
(25,0,l),
(175,0,l),
(175,700,l),
(25,700,l)
);
},
{
closed = 1;
nodes = (
(170,295,l),
(280,295,l),
(280,405,l),
(170,405,l)
);
},
{
closed = 1;
nodes = (
(275,0,l),
(425,0,l),
(425,700,l),
(275,700,l)
);
}
);
width = 450;
}
);
unicode = 72;
},
{
glyphname = I;
lastChange = "2025-02-13 20:29:10 +0000";
layers = (
{
backgroundImage = {
crop = (344.878,283.902,146.341,243.902);
imagePath = "png/FGHIJ.png";
locked = 1;
pos = (-1464,-1364);
scale = (4.1,4.1);
};
layerId = m01;
shapes = (
{
closed = 1;
nodes = (
(25,0,l),
(175,0,l),
(175,700,l),
(25,700,l)
);
}
);
width = 200;
}
);
metricLeft = H;
metricRight = H;
unicode = 73;
},
{
glyphname = J;
lastChange = "2025-03-23 23:57:05 +0000";
layers = (
{
background = {
hints = (
{
name = _corner.ROUND;
origin = (0,0);
type = Corner;
},
{
name = _corner.ROUND;
origin = (0,1);
scale = (1.08,1.08);
type = Corner;
},
{
name = _corner.ROUND;
origin = (1,0);
scale = (0.3,0.3);
type = Corner;
},
{
name = _corner.ROUND;
options = 2;
origin = (1,1);
scale = (-0.3,0.3);
type = Corner;
}
);
shapes = (
{
closed = 1;
nodes = (
(15,0,l),
(415,0,l),
(415,700,l),
(15,700,l)
);
},
{
closed = 1;
nodes = (
(265,110,l),
(165,110,l),
(165,700,l),
(265,700,l)
);
},
{
closed = 1;
nodes = (
(165,700,l),
(165,255,l),
(15,255,l),
(15,700,l)
);
}
);
};
backgroundImage = {
crop = (439.268,283.902,146.341,243.902);
imagePath = "png/FGHIJ.png";
locked = 1;
pos = (-1888,-1364);
scale = (4.1,4.1);
};
hints = (
{
name = _corner.ROUND;
origin = (0,4);
type = Corner;
},
{
name = _corner.ROUND;
origin = (0,5);
scale = (1.08,1.08);
type = Corner;
},
{
name = _corner.ROUND;
origin = (0,0);
scale = (0.3,0.3);
type = Corner;
},
{
name = _corner.ROUND;
options = 2;
origin = (0,1);
scale = (-0.3,0.3);
type = Corner;
}
);
layerId = m01;
shapes = (
{
closed = 1;
nodes = (
(265,110,l),
(165,110,l),
(165,255,l),
(15,255,l),
(15,0,l),
(415,0,l),
(415,700,l),
(265,700,l)
);
}
);
width = 435;
}
);
metricLeft = "=O*.75";
metricRight = O;
unicode = 74;
},
{
glyphname = K;
lastChange = "2025-02-16 21:32:00 +0000";
layers = (
{
background = {
shapes = (
{
closed = 1;
nodes = (
(445,700,l),
(305,700,l),
(145,350,l),
(285,350,l)
);
},
{
closed = 1;
nodes = (
(25,0,l),
(175,0,l),
(175,700,l),
(25,700,l)
);
},
{
closed = 1;
nodes = (
(145,350,l),
(305,0,l),
(445,0,l),
(285,350,l)
);
}
);
};
backgroundImage = {
crop = (41.136,283.864,136.364,227.273);
imagePath = "png/KLMN.png";
locked = 1;
pos = (-236,-1449);
scale = (4.4,4.4);
};
layerId = m01;
shapes = (
{
closed = 1;
nodes = (
(445,700,l),
(305,700,l),
(145,350,l),
(285,350,l)
);
},
{
closed = 1;
nodes = (
(25,0,l),
(175,0,l),
(175,700,l),
(25,700,l)
);
},
{
closed = 1;
nodes = (
(145,350,l),
(305,0,l),
(445,0,l),
(285,350,l)
);
}
);
width = 455;
}
);
metricLeft = H;
metricRight = "=O*.5";
unicode = 75;
},
{
glyphname = L;
lastChange = "2025-02-16 21:32:32 +0000";
layers = (
{
background = {
shapes = (
{
closed = 1;
nodes = (
(25,0,l),
(175,0,l),
(175,700,l),
(25,700,l)
);
},
{
closed = 1;
nodes = (
(175,0,l),
(315,0,l),
(315,110,l),
(175,110,l)
);
}
);
};
backgroundImage = {
crop = (147.955,283.864,136.364,227.273);
imagePath = "png/KLMN.png";
locked = 1;
pos = (-780,-1449);
scale = (4.4,4.4);
};
layerId = m01;
shapes = (
{
closed = 1;
nodes = (
(25,0,l),
(175,0,l),
(175,700,l),
(25,700,l)
);
},
{
closed = 1;
nodes = (
(175,0,l),
(315,0,l),
(315,110,l),
(175,110,l)
);
}
);
width = 335;
}
);
metricLeft = H;
metricRight = "=O";
unicode = 76;
},
{
glyphname = M;
lastChange = "2025-02-28 21:59:39 +0000";
layers = (
{
backgroundImage = {
crop = (269.091,283.864,136.364,227.273);
imagePath = "png/KLMN.png";
pos = (-1184,-1449);
scale = (4.4,4.4);
};
layerId = m01;
shapes = (
{
closed = 1;
nodes = (
(25,0,l),
(175,0,l),
(175,700,l),
(25,700,l)
);
},
{
closed = 1;
nodes = (
(360,0,l),
(245,700,l),
(135,700,l),
(250,0,l)
);
},
{
closed = 1;
nodes = (
(435,700,l),
(435,0,l),
(585,0,l),
(585,700,l)
);
},
{
closed = 1;
nodes = (
(475,700,l),
(365,700,l),
(250,0,l),
(360,0,l)
);
}
);
width = 610;
}
);
metricLeft = H;
metricRight = H;
metricWidth = 638N;
unicode = 77;
},
{
glyphname = N;
lastChange = "2025-02-28 21:51:45 +0000";
layers = (
{
backgroundImage = {
crop = (425.455,283.864,136.364,227.273);
imagePath = "png/KLMN.png";
pos = (-1931,-1449);
scale = (4.4,4.4);
};
layerId = m01;
shapes = (
{
closed = 1;
nodes = (
(25,0,l),
(175,0,l),
(175,700,l),
(25,700,l)
);
},
{
closed = 1;
nodes = (
(460,0,l),
(175,700,l),
(35,700,l),
(330,0,l)
);
},
{
closed = 1;
nodes = (
(330,0,l),
(480,0,l),
(480,700,l),
(330,700,l)
);
}
);
width = 505;
}
);
metricLeft = "=H";
metricRight = "=H";
unicode = 78;
},
{
glyphname = O;
lastChange = "2025-02-13 20:28:33 +0000";
layers = (
{
backgroundImage = {
crop = (15.87,300.217,130.435,217.391);
imagePath = "png/OPQRS.png";
locked = 1;
pos = (-103,-1581);
scale = (4.6,4.6);
};
hints = (
{
name = _corner.ROUND;
origin = (0,1);
type = Corner;
},
{
name = _corner.ROUND;
origin = (0,2);
type = Corner;
},
{
name = _corner.ROUND;
origin = (1,0);
scale = (0.3,0.3);
type = Corner;
},
{
name = _corner.ROUND;
options = 2;
origin = (1,3);
scale = (-0.3,0.3);
type = Corner;
},
{
name = _corner.ROUND;
origin = (1,1);
scale = (0.3,0.3);
type = Corner;
},
{
name = _corner.ROUND;
options = 2;
origin = (1,2);
scale = (-0.3,0.3);
type = Corner;
},
{
name = _corner.ROUND;
origin = (0,3);
type = Corner;
},
{
name = _corner.ROUND;
origin = (0,0);
type = Corner;
}
);
layerId = m01;
shapes = (
{
closed = 1;
nodes = (
(20,0,l),
(420,0,l),
(420,700,l),
(20,700,l)
);
},
{
closed = 1;
nodes = (
(270,110,l),
(170,110,l),
(170,590,l),
(270,590,l)
);
}
);
width = 440;
}
);
unicode = 79;
},
{
glyphname = P;
lastChange = "2025-03-23 23:57:50 +0000";
layers = (
{
backgroundImage = {
crop = (124.565,298.043,130.435,217.391);
imagePath = "png/OPQRS.png";
pos = (-650,-1571);
scale = (4.6,4.6);
};
hints = (
{
name = _corner.ROUND;
origin = (0,3);
scale = (1.08,1.08);
type = Corner;
},
{
name = _corner.ROUND;
origin = (0,4);
scale = (1.08,1.08);
type = Corner;
},
{
name = _corner.ROUND;
origin = (1,0);
scale = (0.3,0.3);
type = Corner;
},
{
name = _corner.ROUND;
options = 2;
origin = (1,3);
scale = (-0.3,0.3);
type = Corner;
}
);
layerId = m01;
shapes = (
{
closed = 1;
nodes = (
(25,0,l),
(175,0,l),
(175,295,l),
(425,295,l),
(425,700,l),
(25,700,l)
);
},
{
closed = 1;
nodes = (
(275,405,l),
(175,405,l),
(175,590,l),
(275,590,l)
);
}
);
width = 440;
}
);
metricLeft = H;
metricRight = "=O*.75";
unicode = 80;
},
{
glyphname = Q;
lastChange = "2025-02-13 20:29:10 +0000";
layers = (
{
background = {
hints = (
{
name = _corner.BASE;
origin = (0,0);
type = Corner;
},
{
name = _corner.BASE;
origin = (0,1);
type = Corner;
},
{
name = _corner.BASE;
origin = (0,2);
type = Corner;
},
{
name = _corner.BASE;
origin = (0,3);
type = Corner;
},
{
name = _corner.BASE;
origin = (1,0);
scale = (0.3,0.3);
type = Corner;
},
{
name = _corner.BASE;
origin = (1,1);
scale = (0.3,0.3);
type = Corner;
},
{
name = _corner.BASE;
options = 2;
origin = (1,2);
scale = (-0.3,0.3);
type = Corner;
},
{
name = _corner.BASE;
options = 2;
origin = (1,3);
scale = (-0.3,0.3);
type = Corner;
}
);
shapes = (
{
closed = 1;
nodes = (
(20,0,l),
(420,0,l),
(420,700,l),
(20,700,l)
);
},
{
closed = 1;
nodes = (
(270,110,l),
(170,110,l),
(170,590,l),
(270,590,l)
);
},
{
closed = 1;
nodes = (
(384,-44,l),
(462,34,l),
(384,112,l),
(306,34,l)
);
}
);
};
backgroundImage = {
crop = (241.957,298.043,130.435,217.391);
imagePath = "png/OPQRS.png";
pos = (-1195,-1571);
scale = (4.6,4.6);
};
hints = (
{
name = _corner.ROUND;
origin = (0,0);
type = Corner;
},
{
name = _corner.ROUND;
origin = (0,1);
type = Corner;
},
{
name = _corner.ROUND;
origin = (0,2);
type = Corner;
},
{
name = _corner.ROUND;
origin = (0,3);
type = Corner;
},
{
name = _corner.ROUND;
origin = (1,0);
scale = (0.3,0.3);
type = Corner;
},
{
name = _corner.ROUND;
origin = (1,1);
scale = (0.3,0.3);
type = Corner;
},
{
name = _corner.ROUND;
options = 2;
origin = (1,2);
scale = (-0.3,0.3);
type = Corner;
},
{
name = _corner.ROUND;
options = 2;
origin = (1,3);
scale = (-0.3,0.3);
type = Corner;
}
);
layerId = m01;
shapes = (
{
closed = 1;
nodes = (
(20,0,l),
(420,0,l),
(420,700,l),
(20,700,l)
);
},
{
closed = 1;
nodes = (
(270,110,l),
(170,110,l),
(170,590,l),
(270,590,l)
);
},
{
closed = 1;
nodes = (
(384,-44,l),
(462,34,l),
(384,112,l),
(306,34,l)
);
}
);
width = 467;
}
);
metricLeft = O;
metricRight = "=O*.25";
unicode = 81;
},
{
glyphname = R;
lastChange = "2025-03-24 00:08:50 +0000";
layers = (
{
background = {
hints = (
{
name = _corner.ROUND;
options = 2;
scale = (-0.3,0.3);
type = Corner;
},
{
name = _corner.ROUND;
scale = (0.8,0.8);
type = Corner;
},
{
name = _corner.ROUND;
scale = (0.8,0.8);
type = Corner;
},
{
name = _corner.ROUND;
scale = (0.3,0.3);
type = Corner;
},
{
name = _corner.ROUND;
options = 2;
scale = (-0.3,0.3);
type = Corner;
},
{
name = _corner.ROUND;
options = 2;
origin = (0,3);
scale = (-0.3,0.3);
type = Corner;
},
{
name = _segment.DOUBLECUT;
origin = (0,7);
type = Segment;
},
{
name = _corner.ROUND;
origin = (0,8);
scale = (0.8,0.8);
type = Corner;
},
{
name = _corner.ROUND;
origin = (1,0);
scale = (0.3,0.3);
type = Corner;
},
{
name = _corner.ROUND;
options = 2;
origin = (1,3);
scale = (-0.3,0.3);
type = Corner;
}
);
shapes = (
{
closed = 1;
nodes = (
(25,0,l),
(175,0,l),
(175,295,l),
(275,295,l),
(275,0,l),
(425,0,l),
(425,248,l),
(425,452,l),
(425,700,l),
(25,700,l)
);
},
{
closed = 1;
nodes = (
(275,405,l),
(175,405,l),
(175,590,l),
(275,590,l)
);
}
);
};
backgroundImage = {
crop = (355,295.87,130.435,217.391);
imagePath = "png/OPQRS.png";
locked = 1;
pos = (-1710,-1561);
scale = (4.6,4.6);
};
hints = (
{
name = _corner.ROUND;
origin = (0,8);
scale = (1.08,1.08);
type = Corner;
},
{
name = _corner.ROUND;
origin = (1,0);
scale = (0.3,0.3);
type = Corner;
},
{
name = _corner.ROUND;
options = 2;
origin = (1,3);
scale = (-0.3,0.3);
type = Corner;
},
{
name = _corner.ROUND;
origin = (0,8);
scale = (0.8,0.8);
type = Corner;
},
{
name = _corner.ROUND;
options = 2;
origin = (0,3);
scale = (-0.3,0.3);
type = Corner;
},
{
name = _segment.DOUBLECUT;
origin = (0,7);
type = Segment;
}
);
layerId = m01;
shapes = (
{
closed = 1;
nodes = (
(25,0,l),
(175,0,l),
(175,295,l),
(275,295,l),
(275,0,l),
(425,0,l),
(425,248,l),
(425,452,l),
(425,700,l),
(25,700,l)
);
},
{
closed = 1;
nodes = (
(275,405,l),
(175,405,l),
(175,590,l),
(275,590,l)
);
}
);
width = 435;
}
);
metricLeft = H;
metricRight = O;
unicode = 82;
},
{
glyphname = S;
lastChange = "2025-02-13 20:29:10 +0000";
layers = (
{
background = {
hints = (
{
name = _corner.ROUND;
type = Corner;
},
{
name = _corner.ROUND;
scale = (0.3,0.3);
type = Corner;
},
{
name = _corner.ROUND;
options = 2;
scale = (-0.3,0.3);
type = Corner;
},
{
name = _corner.ROUND;
scale = (1.08,1.08);
type = Corner;
},
{
name = _corner.ROUND;
type = Corner;
},
{
name = _corner.ROUND;
options = 1;
scale = (0.5,0.5);
type = Corner;
},
{
name = _corner.ROUND;
type = Corner;
},
{
name = _corner.ROUND;
options = 2;
scale = (-0.3,0.3);
type = Corner;
},
{
name = _corner.ROUND;
scale = (0.3,0.3);
type = Corner;
},
{
name = _corner.ROUND;
type = Corner;
},
{
name = _corner.ROUND;
scale = (1.08,1.08);
type = Corner;
},
{
name = _corner.ROUND;
options = 1;
scale = (0.5,0.5);
type = Corner;
},
{
name = _corner.ROUND;
type = Corner;
},
{
name = _corner.ROUND;
scale = (0.3,0.3);
type = Corner;
},
{
name = _corner.ROUND;
options = 2;
scale = (-0.3,0.3);
type = Corner;
},
{
name = _corner.ROUND;
scale = (1.08,1.08);
type = Corner;
},
{
name = _corner.ROUND;
type = Corner;
},
{
name = _corner.ROUND;
options = 1;
scale = (0.5,0.5);
type = Corner;
},
{
name = _corner.ROUND;
type = Corner;
},
{
name = _corner.ROUND;
options = 2;
scale = (-0.3,0.3);
type = Corner;
},
{
name = _corner.ROUND;
scale = (0.3,0.3);
type = Corner;
},
{
name = _corner.ROUND;
type = Corner;
},
{
name = _corner.ROUND;
scale = (1.08,1.08);
type = Corner;
},
{
name = _corner.ROUND;
options = 1;
scale = (0.5,0.5);
type = Corner;
},
{
name = _corner.ROUND;
scale = (0.3,0.3);
type = Corner;
},
{
name = _corner.ROUND;
options = 2;
scale = (-0.3,0.3);
type = Corner;
},
{
name = _corner.ROUND;
scale = (1.08,1.08);
type = Corner;
},
{
name = _corner.ROUND;
type = Corner;
},
{
name = _corner.ROUND;
options = 2;
scale = (-0.3,0.3);
type = Corner;
},
{
name = _corner.ROUND;
scale = (0.3,0.3);
type = Corner;
},
{
name = _corner.ROUND;
type = Corner;
},
{
name = _corner.ROUND;
scale = (1.08,1.08);
type = Corner;
},
{
name = _corner.ROUND;
scale = (0.3,0.3);
type = Corner;
},
{
name = _corner.ROUND;
options = 2;
scale = (-0.3,0.3);
type = Corner;
},
{
name = _corner.ROUND;
scale = (1.08,1.08);
type = Corner;
},
{
name = _corner.ROUND;
type = Corner;
},
{
name = _corner.ROUND;
options = 2;
scale = (-0.3,0.3);
type = Corner;
},
{
name = _corner.ROUND;
scale = (0.3,0.3);
type = Corner;
},
{
name = _corner.ROUND;
type = Corner;
},
{
name = _corner.ROUND;
scale = (1.08,1.08);
type = Corner;
}
);
shapes = (
{
closed = 0;
nodes = (
(270,185,l)
);
}
);
};
backgroundImage = {
crop = (470.217,292.826,123.783,217.391);
imagePath = "png/OPQRS.png";
locked = 1;
pos = (-2245,-1547);
scale = (4.6,4.6);
};
hints = (
{
name = _corner.ROUND;
origin = (0,6);
scale = (1.08,1.08);
type = Corner;
},
{
name = _corner.ROUND;
origin = (0,7);
type = Corner;
},
{
name = _corner.ROUND;
origin = (0,2);
scale = (0.3,0.3);
type = Corner;
},
{
name = _corner.ROUND;
options = 2;
origin = (0,3);
scale = (-0.3,0.3);
type = Corner;
},
{
name = _corner.ROUND;
origin = (0,13);
scale = (0.3,0.3);
type = Corner;
},
{
name = _corner.ROUND;
options = 2;
origin = (0,12);
scale = (-0.3,0.3);
type = Corner;
},
{
name = _corner.ROUND;
origin = (0,17);
scale = (1.08,1.08);
type = Corner;
},
{
name = _corner.ROUND;
origin = (0,16);
type = Corner;
}
);
layerId = m01;
shapes = (
{
closed = 1;
nodes = (
(169,419,o),
(170,515,c),
(170,590,l),
(270,590,l),
(270,485,l),
(420,485,l),
(420,700,l),
(20,700,l),
(20,495,l),
(20,321,o),
(271,295,o),
(270,185,c),
(270,110,l),
(170,110,l),
(170,215,l),
(20,215,l),
(20,0,l),
(420,0,l),
(420,205,l),
(420,386,o)
);
}
);
width = 440;
}
);
metricLeft = O;
metricRight = O;
unicode = 83;
},
{
glyphname = T;
lastChange = "2025-02-16 21:11:55 +0000";
layers = (
{
background = {
shapes = (
{
closed = 1;
nodes = (
(300,590,l),
(440,590,l),
(441,700,l),
(300,700,l)
);
},
{
closed = 1;
nodes = (
(150,0,l),
(300,0,l),
(300,700,l),
(150,700,l)
);
},
{
closed = 1;
nodes = (
(10,590,l),
(150,590,l),
(150,700,l),
(9,700,l)
);
}
);
};
backgroundImage = {
crop = (0,275.181,130.12,240.964);
imagePath = "png/TUVW.png";
pos = (-15,-1342);
scale = (4.15,4.15);
};
layerId = m01;
shapes = (
{
closed = 1;
nodes = (
(150,0,l),
(300,0,l),
(300,700,l),
(150,700,l)
);
},
{
closed = 1;
nodes = (
(300,590,l),
(440,590,l),
(440,700,l),
(300,700,l)
);
},
{
closed = 1;
nodes = (
(10,590,l),
(150,590,l),
(150,700,l),
(10,700,l)
);
}
);
width = 450;
}
);
metricLeft = "=O*.5";
metricRight = "=O*.5";
unicode = 84;
},
{
glyphname = U;
lastChange = "2025-03-23 23:58:16 +0000";
layers = (
{
backgroundImage = {
crop = (113.253,275.181,144.578,240.964);
imagePath = "png/TUVW.png";
pos = (-552,-1342);
scale = (4.15,4.15);
};
hints = (
{
name = _corner.ROUND;
origin = (0,0);
type = Corner;
},
{
name = _corner.ROUND;
origin = (0,1);
type = Corner;
},
{
name = _corner.ROUND;
origin = (0,4);
scale = (0.3,0.3);
type = Corner;
},
{
name = _corner.ROUND;
origin = (0,5);
scale = (0.3,0.3);
type = Corner;
}
);
layerId = m01;
shapes = (
{
closed = 1;
nodes = (
(20,0,l),
(420,0,l),
(420,700,l),
(270,700,l),
(270,110,l),
(170,110,l),
(170,700,l),
(20,700,l)
);
}
);
width = 440;
}
);
metricLeft = O;
metricRight = O;
unicode = 85;
},
{
glyphname = V;
lastChange = "2025-02-13 20:29:10 +0000";
layers = (
{
background = {
shapes = (
{
closed = 1;
nodes = (
(264,0,l),
(150,700,l),
(10,700,l),
(134,0,l)
);
},
{
closed = 1;
nodes = (
(460,700,l),
(320,700,l),
(206,0,l),
(336,0,l)
);
}
);
};
backgroundImage = {
crop = (240.964,275.181,144.578,240.964);
imagePath = "png/TUVW.png";
locked = 1;
pos = (-1065,-1342);
scale = (4.15,4.15);
};
layerId = m01;
shapes = (
{
closed = 1;
nodes = (
(264,0,l),
(150,700,l),
(10,700,l),
(134,0,l)
);
},
{
closed = 1;
nodes = (
(460,700,l),
(320,700,l),
(206,0,l),
(336,0,l)
);
}
);
width = 470;
}
);
metricLeft = "=O*.5";
metricRight = "=O*.5";
unicode = 86;
},
{
glyphname = W;
lastChange = "2025-02-16 22:17:13 +0000";
layers = (
{
background = {
shapes = (
{
closed = 1;
nodes = (
(274,0,l),
(160,700,l),
(10,700,l),
(134,0,l)
);
},
{
closed = 1;
nodes = (
(460,700,l),
(320,700,l),
(196,0,l),
(336,0,l)
);
},
{
closed = 1;
nodes = (
(584,0,l),
(460,700,l),
(320,700,l),
(444,0,l)
);
},
{
closed = 1;
nodes = (
(770,700,l),
(630,700,l),
(506,0,l),
(646,0,l)
);
},
{
closed = 1;
nodes = (
(264,0,l),
(150,700,l),
(10,700,l),
(134,0,l)
);
},
{
closed = 1;
nodes = (
(460,700,l),
(320,700,l),
(206,0,l),
(336,0,l)
);
},
{
closed = 1;
nodes = (
(574,0,l),
(460,700,l),
(320,700,l),
(444,0,l)
);
},
{
closed = 1;
nodes = (
(770,700,l),
(630,700,l),
(516,0,l),
(646,0,l)
);
},
{
closed = 1;
nodes = (
(264,0,l),
(150,700,l),
(10,700,l),
(134,0,l)
);
},
{
closed = 1;
nodes = (
(460,700,l),
(320,700,l),
(206,0,l),
(336,0,l)
);
},
{
closed = 1;
nodes = (
(574,0,l),
(460,700,l),
(320,700,l),
(444,0,l)
);
},
{
closed = 1;
nodes = (
(770,700,l),
(630,700,l),
(516,0,l),
(646,0,l)
);
},
{
closed = 1;
nodes = (
(264,0,l),
(150,700,l),
(10,700,l),
(134,0,l)
);
},
{
closed = 1;
nodes = (
(460,700,l),
(320,700,l),
(206,0,l),
(336,0,l)
);
},
{
closed = 1;
nodes = (
(574,0,l),
(460,700,l),
(320,700,l),
(444,0,l)
);
},
{
closed = 1;
nodes = (
(770,700,l),
(630,700,l),
(516,0,l),
(646,0,l)
);
}
);
};
backgroundImage = {
crop = (407.229,275.181,144.578,240.964);
imagePath = "png/TUVW.png";
pos = (-1600,-1342);
scale = (4.15,4.15);
};
layerId = m01;
shapes = (
{
closed = 1;
nodes = (
(264,0,l),
(150,700,l),
(10,700,l),
(134,0,l)
);
},
{
closed = 1;
nodes = (
(460,700,l),
(320,700,l),
(206,0,l),
(336,0,l)
);
},
{
closed = 1;
nodes = (
(574,0,l),
(460,700,l),
(320,700,l),
(444,0,l)
);
},
{
closed = 1;
nodes = (
(770,700,l),
(630,700,l),
(516,0,l),
(646,0,l)
);
}
);
width = 780;
}
);
metricLeft = "=O*.5";
metricRight = "=O*.5";
unicode = 87;
},
{
glyphname = X;
lastChange = "2025-02-16 22:11:11 +0000";
layers = (
{
background = {
shapes = (
{
closed = 1;
nodes = (
(410,0,l),
(150,700,l),
(10,700,l),
(270,0,l)
);
},
{
closed = 1;
nodes = (
(410,700,l),
(270,700,l),
(10,0,l),
(150,0,l)
);
}
);
};
backgroundImage = {
crop = (106.591,285.227,136.364,227.273);
imagePath = "png/XYZ.png";
pos = (-559,-1455);
scale = (4.4,4.4);
};
layerId = m01;
shapes = (
{
closed = 1;
nodes = (
(410,0,l),
(150,700,l),
(10,700,l),
(270,0,l)
);
},
{
closed = 1;
nodes = (
(410,700,l),
(270,700,l),
(10,0,l),
(150,0,l)
);
}
);
width = 420;
}
);
metricLeft = "=O*0.5";
metricRight = "=O*.5";
unicode = 88;
},
{
glyphname = Y;
lastChange = "2025-02-28 22:07:27 +0000";
layers = (
{
background = {
shapes = (
{
closed = 1;
nodes = (
(167,0,l),
(307,0,l),
(305,230,l),
(165,230,l)
);
},
{
closed = 1;
nodes = (
(294,230,l),
(150,700,l),
(10,700,l),
(165,230,l)
);
},
{
closed = 1;
nodes = (
(461,700,l),
(321,700,l),
(177,230,l),
(305,230,l)
);
}
);
};
backgroundImage = {
crop = (245.227,282.955,136.364,227.273);
imagePath = "png/XYZ.png";
pos = (-1142,-1445);
scale = (4.4,4.4);
};
layerId = m01;
shapes = (
{
closed = 1;
nodes = (
(167,0,l),
(307,0,l),
(305,230,l),
(165,230,l)
);
},
{
closed = 1;
nodes = (
(294,230,l),
(150,700,l),
(10,700,l),
(165,230,l)
);
},
{
closed = 1;
nodes = (
(461,700,l),
(321,700,l),
(177,230,l),
(305,230,l)
);
}
);
width = 471;
}
);
metricLeft = "=O*.5";
metricRight = "=O*.5";
unicode = 89;
},
{
glyphname = Z;
lastChange = "2025-03-01 22:51:38 +0000";
layers = (
{
background = {
shapes = (
{
closed = 0;
nodes = (
(415,700,l)
);
}
);
};
backgroundImage = {
crop = (372.5,280.682,136.364,227.273);
imagePath = "png/XYZ.png";
pos = (-1724,-1435);
scale = (4.4,4.4);
};
layerId = m01;
shapes = (
{
closed = 1;
nodes = (
(385,560,l),
(235,560,l),
(15,140,l),
(165,140,l)
);
},
{
closed = 1;
nodes = (
(15,560,l),
(385,560,l),
(385,700,l),
(15,700,l)
);
},
{
closed = 1;
nodes = (
(15,0,l),
(384,0,l),
(384,140,l),
(15,140,l)
);
}
);
width = 400;
}
);
metricLeft = "=O*.75";
metricRight = "=O*.75";
unicode = 90;
},
{
glyphname = a;
lastChange = "2025-02-28 20:55:48 +0000";
layers = (
{
guides = (
{
angle = 90;
pos = (174,250);
},
{
angle = 270;
pos = (259,250);
},
{
angle = 270;
pos = (25,250);
}
);
hints = (
{
name = _corner.ROUND;
origin = (0,8);
scale = (0.3,0.3);
type = Corner;
},
{
name = _corner.ROUND;
options = 2;
origin = (0,7);
scale = (-0.3,0.3);
type = Corner;
},
{
name = _corner.ROUND;
origin = (0,4);
scale = (1.08,1.08);
type = Corner;
},
{
name = _corner.ROUND;
origin = (0,3);
type = Corner;
},
{
name = _corner.ROUND;
options = 2;
origin = (1,1);
scale = (-0.2,0.2);
type = Corner;
},
{
name = _corner.ROUND;
origin = (1,0);
scale = (0.3,0.3);
type = Corner;
},
{
name = _corner.ROUND;
origin = (0,7);
scale = (0.3,0.3);
type = Corner;
},
{
name = _corner.ROUND;
origin = (0,8);
scale = (0.3,0.3);
type = Corner;
},
{
name = _corner.ROUND;
origin = (0,14);
scale = (0.75,0.75);
type = Corner;
},
{
name = _segment.CUT;
options = 1;
origin = (0,16);
scale = (-1,1);
type = Segment;
}
);
layerId = m01;
shapes = (
{
closed = 1;
nodes = (
(410,0,l),
(410,155,l),
(410,355,l),
(410,500,l),
(25,500,l),
(25,345,l),
(175,345,l),
(175,390,l),
(260,390,l),
(260,345,l),
(259,269,o),
(26,336,o),
(25,155,cs),
(25,145,l),
(24,0,l),
(174,0,l),
(259,0,l)
);
},
{
closed = 1;
nodes = (
(259,110,l),
(174,110,l),
(174,155,l),
(174,192,o),
(213,200,o),
(259,210,c),
(259,155,l)
);
}
);
width = 435;
}
);
metricLeft = "=h";
metricRight = "=h";
unicode = 97;
},
{
glyphname = b;
lastChange = "2025-03-24 00:01:43 +0000";
layers = (
{
background = {
hints = (
{
name = _segment.CUT;
type = Segment;
},
{
name = _corner.ROUND;
type = Corner;
},
{
name = _corner.ROUND;
type = Corner;
},
{
name = _segment.CUT;
options = 1;
scale = (-1,1);
type = Segment;
},
{
name = _corner.ROUND;
scale = (0.3,0.3);
type = Corner;
},
{
name = _corner.ROUND;
scale = (0.3,0.3);
type = Corner;
},
{
name = _corner.ROUND;
options = 2;
scale = (-0.3,0.3);
type = Corner;
},
{
name = _corner.ROUND;
options = 2;
scale = (-0.3,0.3);
type = Corner;
},
{
name = _segment.CUT;
origin = (0,1);
type = Segment;
},
{
name = _corner.ROUND;
origin = (0,2);
type = Corner;
},
{
name = _corner.ROUND;
origin = (0,3);
type = Corner;
},
{
name = _segment.CUT;
options = 1;
origin = (0,5);
scale = (-1,1);
type = Segment;
},
{
name = _corner.ROUND;
origin = (1,0);
scale = (0.3,0.3);
type = Corner;
},
{
name = _corner.ROUND;
origin = (1,1);
scale = (0.3,0.3);
type = Corner;
},
{
name = _corner.ROUND;
options = 2;
origin = (1,2);
scale = (-0.3,0.3);
type = Corner;
},
{
name = _corner.ROUND;
options = 2;
origin = (1,3);
scale = (-0.3,0.3);
type = Corner;
}
);
shapes = (
{
closed = 1;
nodes = (
(175,0,l),
(266,0,l),
(410,0,l),
(410,500,l),
(269,500,l),
(175,500,l),
(175,700,l),
(25,700,l),
(25,0,l)
);
},
{
closed = 1;
nodes = (
(175,390,l),
(260,390,l),
(260,110,l),
(175,110,l)
);
}
);
};
guides = (
{
angle = 89.6562;
pos = (268,250);
}
);
hints = (
{
name = _corner.BASE;
type = Corner;
},
{
name = _corner.BASE;
scale = (1.08,1.08);
type = Corner;
},
{
name = _corner.BASE;
scale = (1.08,1.08);
type = Corner;
},
{
name = _corner.BASE;
type = Corner;
},
{
name = _corner.BASE;
scale = (0.3,0.3);
type = Corner;
},
{
name = _corner.BASE;
options = 2;
scale = (-0.3,0.3);
type = Corner;
},
{
name = _corner.BASE;
scale = (0.3,0.3);
type = Corner;
},
{
name = _corner.BASE;
options = 2;
scale = (-0.3,0.3);
type = Corner;
},
{
name = _corner.ROUND;
type = Corner;
},
{
name = _corner.ROUND;
type = Corner;
},
{
name = _corner.ROUND;
type = Corner;
},
{
name = _corner.ROUND;
type = Corner;
},
{
name = _corner.ROUND;
scale = (0.3,0.3);
type = Corner;
},
{
name = _corner.ROUND;
scale = (0.3,0.3);
type = Corner;
},
{
name = _corner.ROUND;
options = 2;
scale = (-0.3,0.3);
type = Corner;
},
{
name = _corner.ROUND;
options = 2;
scale = (-0.3,0.3);
type = Corner;
},
{
name = _corner.ROUND;
type = Corner;
},
{
name = _corner.ROUND;
type = Corner;
},
{
name = _corner.ROUND;
type = Corner;
},
{
name = _corner.ROUND;
type = Corner;
},
{
name = _corner.ROUND;
options = 2;
scale = (-0.3,0.3);
type = Corner;
},
{
name = _corner.ROUND;
scale = (0.3,0.3);
type = Corner;
},
{
name = _corner.ROUND;
scale = (0.3,0.3);
type = Corner;
},
{
name = _corner.ROUND;
options = 2;
scale = (-0.3,0.3);
type = Corner;
},
{
name = _segment.CUT;
type = Segment;
},
{
name = _corner.ROUND;
type = Corner;
},
{
name = _corner.ROUND;
type = Corner;
},
{
name = _corner.ROUND;
options = 2;
scale = (-0.3,0.3);
type = Corner;
},
{
name = _corner.ROUND;
scale = (0.3,0.3);
type = Corner;
},
{
name = _corner.ROUND;
scale = (0.3,0.3);
type = Corner;
},
{
name = _corner.ROUND;
options = 2;
scale = (-0.3,0.3);
type = Corner;
},
{
name = _segment.CUT;
origin = (0,1);
type = Segment;
},
{
name = _corner.ROUND;
origin = (0,2);
type = Corner;
},
{
name = _corner.ROUND;
origin = (0,3);
type = Corner;
},
{
name = _segment.CUT;
options = 1;
origin = (0,5);
scale = (-1,1);
type = Segment;
},
{
name = _corner.ROUND;
origin = (1,0);
scale = (0.3,0.3);
type = Corner;
},
{
name = _corner.ROUND;
origin = (1,1);
scale = (0.3,0.3);
type = Corner;
},
{
name = _corner.ROUND;
options = 2;
origin = (1,2);
scale = (-0.3,0.3);
type = Corner;
},
{
name = _corner.ROUND;
options = 2;
origin = (1,3);
scale = (-0.3,0.3);
type = Corner;
}
);
layerId = m01;
shapes = (
{
closed = 1;
nodes = (
(175,0,l),
(266,0,l),
(410,0,l),
(410,500,l),
(269,500,l),
(175,500,l),
(175,700,l),
(25,700,l),
(25,0,l)
);
},
{
closed = 1;
nodes = (
(175,390,l),
(260,390,l),
(260,110,l),
(175,110,l)
);
}
);
width = 435;
}
);
metricLeft = h;
metricRight = h;
unicode = 98;
},
{
glyphname = c;
lastChange = "2025-03-13 13:28:16 +0000";
layers = (
{
hints = (
{
name = _corner.ROUND;
origin = (0,0);
type = Corner;
},
{
name = _corner.ROUND;
origin = (0,1);
type = Corner;
},
{
name = _corner.ROUND;
origin = (0,2);
type = Corner;
},
{
name = _corner.ROUND;
origin = (0,11);
type = Corner;
},
{
name = _corner.ROUND;
origin = (0,5);
scale = (0.3,0.3);
type = Corner;
},
{
name = _corner.ROUND;
origin = (0,6);
scale = (0.3,0.3);
type = Corner;
},
{
name = _corner.ROUND;
options = 2;
origin = (0,7);
scale = (-0.3,0.3);
type = Corner;
},
{
name = _corner.ROUND;
options = 2;
origin = (0,8);
scale = (-0.3,0.3);
type = Corner;
}
);
layerId = m01;
shapes = (
{
closed = 1;
nodes = (
(25,500,l),
(25,0,l),
(410,0,l),
(410,171,l),
(260,171,l),
(260,110,l),
(175,110,l),
(175,390,l),
(260,390,l),
(260,321,l),
(410,321,l),
(410,500,l)
);
}
);
width = 435;
}
);
metricLeft = "=h";
metricRight = "=h";
unicode = 99;
},
{
glyphname = d;
lastChange = "2025-03-24 00:02:14 +0000";
layers = (
{
guides = (
{
angle = 90;
pos = (260,350);
}
);
hints = (
{
name = _corner.ROUND;
origin = (1,0);
scale = (0.3,0.3);
type = Corner;
},
{
name = _corner.ROUND;
origin = (1,1);
scale = (0.3,0.3);
type = Corner;
},
{
name = _corner.ROUND;
options = 2;
origin = (1,2);
scale = (-0.3,0.3);
type = Corner;
},
{
name = _corner.ROUND;
options = 2;
origin = (1,3);
scale = (-0.3,0.3);
type = Corner;
},
{
name = _corner.ROUND;
origin = (0,8);
type = Corner;
},
{
name = _corner.ROUND;
origin = (0,9);
type = Corner;
},
{
name = _segment.CUT;
origin = (0,7);
type = Segment;
},
{
name = _segment.CUT;
options = 1;
origin = (0,1);
scale = (-1,1);
type = Segment;
}
);
layerId = m01;
shapes = (
{
closed = 1;
nodes = (
(175,0,l),
(260,0,l),
(266,0,l),
(410,0,l),
(410,700,l),
(260,700,l),
(260,500,l),
(175,500,l),
(25,500,l),
(25,0,l)
);
},
{
closed = 1;
nodes = (
(175,390,l),
(260,390,l),
(260,110,l),
(175,110,l)
);
}
);
width = 435;
}
);
metricLeft = "=h";
metricRight = "=h";
unicode = 100;
},
{
glyphname = e;
lastChange = "2025-03-24 00:02:31 +0000";
layers = (
{
background = {
hints = (
{
name = _corner.ROUND;
type = Corner;
},
{
name = _corner.ROUND;
type = Corner;
},
{
name = _corner.ROUND;
type = Corner;
},
{
name = _corner.ROUND;
type = Corner;
},
{
name = _corner.ROUND;
scale = (0.3,0.3);
type = Corner;
},
{
name = _corner.ROUND;
scale = (0.3,0.3);
type = Corner;
},
{
name = _corner.ROUND;
options = 2;
scale = (-0.3,0.3);
type = Corner;
},
{
name = _corner.ROUND;
options = 2;
scale = (-0.3,0.3);
type = Corner;
},
{
name = _corner.ROUND;
type = Corner;
},
{
name = _corner.ROUND;
type = Corner;
},
{
name = _corner.ROUND;
type = Corner;
},
{
name = _corner.ROUND;
type = Corner;
},
{
name = _corner.ROUND;
scale = (0.3,0.3);
type = Corner;
},
{
name = _corner.ROUND;
scale = (0.3,0.3);
type = Corner;
},
{
name = _corner.ROUND;
options = 2;
scale = (-0.3,0.3);
type = Corner;
},
{
name = _corner.ROUND;
options = 2;
scale = (-0.3,0.3);
type = Corner;
},
{
name = _corner.ROUND;
origin = (0,0);
scale = (1.2,1.2);
type = Corner;
},
{
name = _corner.ROUND;
origin = (0,1);
scale = (1.2,1.2);
type = Corner;
},
{
name = _corner.ROUND;
origin = (0,2);
scale = (1.2,1.2);
type = Corner;
},
{
name = _corner.ROUND;
origin = (0,5);
scale = (0.3,0.3);
type = Corner;
},
{
name = _corner.ROUND;
origin = (0,6);
scale = (0.3,0.3);
type = Corner;
},
{
name = _corner.ROUND;
origin = (0,9);
scale = (1.2,1.2);
type = Corner;
},
{
name = _corner.ROUND;
options = 2;
origin = (1,2);
scale = (-0.3,0.3);
type = Corner;
},
{
name = _corner.ROUND;
options = 2;
origin = (1,3);
scale = (-0.3,0.3);
type = Corner;
}
);
shapes = (
{
closed = 1;
nodes = (
(25,500,l),
(25,0,l),
(410,0,l),
(410,171,l),
(260,171,l),
(260,110,l),
(175,110,l),
(175,241,l),
(410,241,l),
(410,500,l)
);
},
{
closed = 1;
nodes = (
(260,321,l),
(175,321,l),
(175,390,l),
(260,390,l)
);
}
);
};
hints = (
{
name = _corner.ROUND;
type = Corner;
},
{
name = _corner.ROUND;
options = 2;
scale = (-0.3,0.3);
type = Corner;
},
{
name = _corner.ROUND;
options = 2;
scale = (-0.3,0.3);
type = Corner;
},
{
name = _corner.ROUND;
type = Corner;
},
{
name = _corner.ROUND;
type = Corner;
},
{
name = _corner.ROUND;
type = Corner;
},
{
name = _corner.ROUND;
scale = (0.3,0.3);
type = Corner;
},
{
name = _corner.ROUND;
scale = (0.3,0.3);
type = Corner;
},
{
name = _corner.ROUND;
origin = (0,0);
scale = (1.2,1.2);
type = Corner;
},
{
name = _corner.ROUND;
origin = (0,1);
scale = (1.2,1.2);
type = Corner;
},
{
name = _corner.ROUND;
origin = (0,2);
scale = (1.2,1.2);
type = Corner;
},
{
name = _corner.ROUND;
origin = (0,9);
scale = (1.2,1.2);
type = Corner;
},
{
name = _corner.ROUND;
origin = (0,5);
scale = (0.3,0.3);
type = Corner;
},
{
name = _corner.ROUND;
origin = (0,6);
scale = (0.3,0.3);
type = Corner;
},
{
name = _corner.ROUND;
options = 2;
origin = (1,2);
scale = (-0.3,0.3);
type = Corner;
},
{
name = _corner.ROUND;
options = 2;
origin = (1,3);
scale = (-0.3,0.3);
type = Corner;
}
);
layerId = m01;
shapes = (
{
closed = 1;
nodes = (
(25,500,l),
(25,0,l),
(410,0,l),
(410,171,l),
(260,171,l),
(260,110,l),
(175,110,l),
(175,241,l),
(410,241,l),
(410,500,l)
);
},
{
closed = 1;
nodes = (
(260,321,l),
(175,321,l),
(175,390,l),
(260,390,l)
);
}
);
width = 435;
}
);
metricLeft = "=h";
metricRight = "=h";
unicode = 101;
},
{
glyphname = f;
lastChange = "2025-02-27 19:10:34 +0000";
layers = (
{
hints = (
{
name = _corner.ROUND;
origin = (0,5);
type = Corner;
},
{
name = _corner.ROUND;
origin = (0,1);
scale = (0.3,0.3);
type = Corner;
}
);
layerId = m01;
shapes = (
{
closed = 1;
nodes = (
(233,0,l),
(233,590,l),
(303,590,l),
(303,700,l),
(233,700,l),
(83,700,l),
(83,0,l)
);
},
{
closed = 1;
nodes = (
(303,390,l),
(303,500,l),
(13,500,l),
(13,390,l)
);
}
);
width = 316;
}
);
metricLeft = "=h*.5";
metricRight = "=h*.5";
unicode = 102;
},
{
glyphname = g;
lastChange = "2025-02-27 20:29:50 +0000";
layers = (
{
background = {
hints = (
{
name = _segment.CUT;
options = 1;
origin = (0,1);
scale = (-1,1);
type = Segment;
},
{
name = _corner.ROUND;
origin = (0,3);
type = Corner;
},
{
name = _segment.CUT;
origin = (0,6);
type = Segment;
},
{
name = _corner.ROUND;
origin = (0,7);
type = Corner;
},
{
name = _corner.ROUND;
origin = (0,8);
type = Corner;
},
{
name = _corner.ROUND;
origin = (1,0);
scale = (0.3,0.3);
type = Corner;
},
{
name = _corner.ROUND;
origin = (1,1);
scale = (0.3,0.3);
type = Corner;
},
{
name = _corner.ROUND;
options = 2;
origin = (1,2);
scale = (-0.3,0.3);
type = Corner;
},
{
name = _corner.ROUND;
options = 2;
origin = (1,3);
scale = (-0.3,0.3);
type = Corner;
},
{
name = _corner.ROUND;
options = 2;
origin = (2,2);
scale = (-0.3,0.3);
type = Corner;
},
{
name = _corner.ROUND;
options = 2;
origin = (2,3);
scale = (-0.3,0.3);
type = Corner;
},
{
name = _corner.ROUND;
origin = (3,0);
type = Corner;
}
);
shapes = (
{
closed = 1;
nodes = (
(175,0,l),
(260,0,l),
(260,-200,l),
(410,-200,l),
(410,500,l),
(260,500,l),
(175,500,l),
(25,500,l),
(25,0,l)
);
},
{
closed = 1;
nodes = (
(175,390,l),
(260,390,l),
(260,110,l),
(175,110,l)
);
},
{
closed = 1;
nodes = (
(175,-50,l),
(260,-50,l),
(260,-90,l),
(175,-90,l)
);
},
{
closed = 1;
nodes = (
(25,-200,l),
(410,-200,l),
(410,-50,l),
(25,-50,l)
);
}
);
};
guides = (
{
angle = 180;
pos = (-282,-90);
}
);
hints = (
{
name = _segment.CUT;
options = 1;
origin = (0,1);
scale = (-1,1);
type = Segment;
},
{
name = _segment.CUT;
origin = (0,6);
type = Segment;
},
{
name = _corner.ROUND;
origin = (0,7);
type = Corner;
},
{
name = _corner.ROUND;
origin = (0,8);
type = Corner;
},
{
name = _corner.ROUND;
origin = (1,0);
scale = (0.3,0.3);
type = Corner;
},
{
name = _corner.ROUND;
origin = (1,1);
scale = (0.3,0.3);
type = Corner;
},
{
name = _corner.ROUND;
options = 2;
origin = (1,2);
scale = (-0.3,0.3);
type = Corner;
},
{
name = _corner.ROUND;
options = 2;
origin = (1,3);
scale = (-0.3,0.3);
type = Corner;
},
{
name = _corner.ROUND;
origin = (0,3);
type = Corner;
},
{
name = _corner.ROUND;
options = 2;
origin = (2,2);
scale = (-0.3,0.3);
type = Corner;
},
{
name = _corner.ROUND;
options = 2;
origin = (2,3);
scale = (-0.3,0.3);
type = Corner;
},
{
name = _corner.ROUND;
origin = (3,0);
type = Corner;
},
{
name = _corner.ROUND;
origin = (0,3);
type = Corner;
},
{
name = _corner.ROUND;
origin = (3,1);
type = Corner;
}
);
layerId = m01;
shapes = (
{
closed = 1;
nodes = (
(175,0,l),
(260,0,l),
(260,-200,l),
(410,-200,l),
(410,500,l),
(260,500,l),
(175,500,l),
(25,500,l),
(25,0,l)
);
},
{
closed = 1;
nodes = (
(175,390,l),
(260,390,l),
(260,110,l),
(175,110,l)
);
},
{
closed = 1;
nodes = (
(175,-50,l),
(260,-50,l),
(260,-90,l),
(175,-90,l)
);
},
{
closed = 1;
nodes = (
(25,-200,l),
(410,-200,l),
(410,-50,l),
(25,-50,l)
);
}
);
width = 435;
}
);
metricLeft = h;
metricRight = h;
unicode = 103;
},
{
glyphname = h;
lastChange = "2025-02-27 20:14:20 +0000";
layers = (
{
background = {
hints = (
{
name = _corner.ROUND;
type = Corner;
},
{
name = _corner.ROUND;
options = 2;
scale = (-0.3,0.3);
type = Corner;
},
{
name = _corner.ROUND;
options = 2;
scale = (-0.3,0.3);
type = Corner;
},
{
name = _corner.ROUND;
origin = (0,4);
type = Corner;
},
{
name = _corner.ROUND;
options = 2;
origin = (1,2);
scale = (-0.3,0.3);
type = Corner;
},
{
name = _corner.ROUND;
options = 2;
origin = (1,3);
scale = (-0.3,0.3);
type = Corner;
}
);
shapes = (
{
closed = 1;
nodes = (
(175,700,l),
(25,700,l),
(25,0,l),
(410,0,l),
(410,500,l),
(266,500,l),
(234,500,o),
(198,484,o),
(175,460,c)
);
},
{
closed = 1;
nodes = (
(260,0,l),
(175,0,l),
(175,390,l),
(260,390,l)
);
}
);
};
hints = (
{
name = _segment.CUT;
options = 1;
origin = (0,0);
scale = (-1,1);
type = Segment;
},
{
name = _corner.ROUND;
origin = (0,5);
type = Corner;
},
{
name = _corner.ROUND;
options = 2;
origin = (1,2);
scale = (-0.3,0.3);
type = Corner;
},
{
name = _corner.ROUND;
options = 2;
origin = (1,3);
scale = (-0.3,0.3);
type = Corner;
}
);
layerId = m01;
shapes = (
{
closed = 1;
nodes = (
(175,500,l),
(175,700,l),
(25,700,l),
(25,0,l),
(410,0,l),
(410,500,l),
(266,500,l)
);
},
{
closed = 1;
nodes = (
(260,0,l),
(175,0,l),
(175,390,l),
(260,390,l)
);
}
);
width = 435;
}
);
unicode = 104;
},
{
glyphname = i;
lastChange = "2025-02-27 20:49:28 +0000";
layers = (
{
layerId = m01;
shapes = (
{
closed = 1;
nodes = (
(175,500,l),
(25,500,l),
(25,0,l),
(175,0,l)
);
},
{
closed = 1;
nodes = (
(175,660,l),
(25,660,l),
(25,550,l),
(175,550,l)
);
}
);
width = 200;
}
);
metricLeft = "=h";
metricRight = "=h";
unicode = 105;
},
{
glyphname = j;
lastChange = "2025-02-27 20:49:53 +0000";
layers = (
{
hints = (
{
name = _corner.ROUND;
origin = (0,1);
scale = (0.3,0.3);
type = Corner;
},
{
name = _corner.ROUND;
origin = (0,5);
type = Corner;
}
);
layerId = m01;
shapes = (
{
closed = 1;
nodes = (
(70,500,l),
(70,-90,l),
(0,-90,l),
(0,-200,l),
(70,-200,l),
(220,-200,l),
(220,500,l)
);
},
{
closed = 1;
nodes = (
(220,660,l),
(70,660,l),
(70,550,l),
(220,550,l)
);
}
);
width = 233;
}
);
metricRight = "=h*.5";
unicode = 106;
},
{
glyphname = k;
lastChange = "2025-02-27 19:21:34 +0000";
layers = (
{
layerId = m01;
shapes = (
{
closed = 1;
nodes = (
(25,0,l),
(175,0,l),
(175,700,l),
(25,700,l)
);
},
{
closed = 1;
nodes = (
(155,250,l),
(305,250,l),
(410,500,l),
(260,500,l)
);
},
{
closed = 1;
nodes = (
(410,0,l),
(305,250,l),
(155,250,l),
(260,0,l)
);
}
);
width = 435;
}
);
metricLeft = "=h";
metricRight = "=h";
unicode = 107;
},
{
glyphname = l;
lastChange = "2025-03-24 00:03:16 +0000";
layers = (
{
layerId = m01;
shapes = (
{
closed = 1;
nodes = (
(155,700,l),
(25,700,l),
(25,0,l),
(155,0,l)
);
}
);
width = 180;
}
);
metricLeft = "=h";
metricRight = "=h";
unicode = 108;
},
{
glyphname = m;
lastChange = "2025-03-24 00:03:27 +0000";
layers = (
{
background = {
hints = (
{
name = _corner.ROUND;
type = Corner;
},
{
name = _corner.ROUND;
options = 2;
scale = (-0.3,0.3);
type = Corner;
},
{
name = _corner.ROUND;
options = 2;
scale = (-0.3,0.3);
type = Corner;
},
{
name = _corner.ROUND;
type = Corner;
},
{
name = _corner.ROUND;
options = 2;
scale = (-0.3,0.3);
type = Corner;
},
{
name = _corner.ROUND;
options = 2;
scale = (-0.3,0.3);
type = Corner;
},
{
name = _corner.ROUND;
options = 2;
scale = (-0.3,0.3);
type = Corner;
},
{
name = _corner.ROUND;
options = 2;
scale = (-0.3,0.3);
type = Corner;
},
{
name = _corner.ROUND;
type = Corner;
},
{
name = _corner.ROUND;
scale = (0.3,0.3);
type = Corner;
},
{
name = _corner.ROUND;
options = 2;
scale = (-0.3,0.3);
type = Corner;
},
{
name = _corner.ROUND;
options = 2;
scale = (-0.3,0.3);
type = Corner;
},
{
name = _corner.ROUND;
options = 2;
scale = (-0.3,0.3);
type = Corner;
},
{
name = _corner.ROUND;
type = Corner;
},
{
name = _corner.ROUND;
scale = (0.3,0.3);
type = Corner;
},
{
name = _corner.ROUND;
options = 2;
scale = (-0.3,0.3);
type = Corner;
},
{
name = _segment.CUT;
options = 1;
scale = (-1,1);
type = Segment;
},
{
name = _corner.ROUND;
type = Corner;
},
{
name = _corner.ROUND;
options = 2;
scale = (-0.3,0.3);
type = Corner;
},
{
name = _corner.ROUND;
options = 2;
scale = (-0.3,0.3);
type = Corner;
},
{
name = _segment.CUT;
options = 1;
scale = (-1,1);
type = Segment;
},
{
name = _corner.ROUND;
type = Corner;
},
{
name = _corner.ROUND;
options = 2;
scale = (-0.3,0.3);
type = Corner;
},
{
name = _corner.ROUND;
options = 2;
scale = (-0.3,0.3);
type = Corner;
},
{
name = _corner.ROUND;
type = Corner;
},
{
name = _corner.ROUND;
options = 2;
scale = (-0.3,0.3);
type = Corner;
},
{
name = _corner.ROUND;
options = 2;
scale = (-0.3,0.3);
type = Corner;
},
{
name = _corner.ROUND;
options = 2;
scale = (-0.3,0.3);
type = Corner;
},
{
name = _corner.ROUND;
options = 2;
scale = (-0.3,0.3);
type = Corner;
},
{
name = _corner.ROUND;
type = Corner;
},
{
name = _segment.CUT;
options = 1;
scale = (-1,1);
type = Segment;
},
{
name = _corner.ROUND;
type = Corner;
},
{
name = _corner.ROUND;
options = 2;
scale = (-0.3,0.3);
type = Corner;
},
{
name = _corner.ROUND;
options = 2;
scale = (-0.3,0.3);
type = Corner;
},
{
name = _corner.ROUND;
options = 2;
scale = (-0.3,0.3);
type = Corner;
},
{
name = _corner.ROUND;
options = 2;
scale = (-0.3,0.3);
type = Corner;
},
{
name = _corner.ROUND;
type = Corner;
},
{
name = _corner.ROUND;
options = 2;
scale = (-0.3,0.3);
type = Corner;
},
{
name = _corner.ROUND;
options = 2;
scale = (-0.3,0.3);
type = Corner;
},
{
name = _corner.ROUND;
type = Corner;
},
{
name = _segment.CUT;
options = 1;
scale = (-1,1);
type = Segment;
},
{
name = _corner.ROUND;
scale = (0.3,0.3);
type = Corner;
},
{
name = _corner.ROUND;
scale = (0.3,0.3);
type = Corner;
},
{
name = _corner.ROUND;
type = Corner;
},
{
name = _corner.ROUND;
options = 2;
origin = (0,5);
scale = (-0.3,0.3);
type = Corner;
},
{
name = _corner.ROUND;
options = 2;
origin = (0,6);
scale = (-0.3,0.3);
type = Corner;
},
{
name = _corner.ROUND;
origin = (0,9);
type = Corner;
},
{
name = _segment.CUT;
options = 1;
origin = (1,1);
scale = (-1,1);
type = Segment;
},
{
name = _corner.ROUND;
origin = (1,5);
scale = (0.3,0.3);
type = Corner;
},
{
name = _corner.ROUND;
origin = (1,6);
scale = (0.3,0.3);
type = Corner;
},
{
name = _corner.ROUND;
origin = (1,9);
type = Corner;
}
);
shapes = (
{
closed = 1;
nodes = (
(446,500,o),
(410,463,o),
(385,431,c),
(385,343,l),
(410,343,l),
(410,390,l),
(495,390,l),
(495,0,l),
(645,0,l),
(645,500,l),
(501,500,ls)
);
},
{
closed = 1;
nodes = (
(266,500,l),
(175,500,l),
(25,500,l),
(25,0,l),
(175,0,l),
(175,390,l),
(260,390,l),
(260,0,l),
(410,0,l),
(410,500,l)
);
}
);
};
hints = (
{
name = _corner.ROUND;
origin = (0,9);
type = Corner;
},
{
name = _corner.ROUND;
options = 2;
origin = (0,5);
scale = (-0.3,0.3);
type = Corner;
},
{
name = _corner.ROUND;
options = 2;
origin = (0,6);
scale = (-0.3,0.3);
type = Corner;
},
{
name = _corner.ROUND;
origin = (1,5);
scale = (0.3,0.3);
type = Corner;
},
{
name = _corner.ROUND;
origin = (1,6);
scale = (0.3,0.3);
type = Corner;
},
{
name = _corner.ROUND;
origin = (1,9);
type = Corner;
},
{
name = _segment.CUT;
options = 1;
origin = (1,1);
scale = (-1,1);
type = Segment;
}
);
layerId = m01;
shapes = (
{
closed = 1;
nodes = (
(446,500,o),
(410,463,o),
(385,431,c),
(385,343,l),
(410,343,l),
(410,390,l),
(495,390,l),
(495,0,l),
(645,0,l),
(645,500,l),
(501,500,ls)
);
},
{
closed = 1;
nodes = (
(266,500,l),
(175,500,l),
(25,500,l),
(25,0,l),
(175,0,l),
(175,390,l),
(260,390,l),
(260,0,l),
(410,0,l),
(410,500,l)
);
}
);
width = 670;
}
);
metricLeft = "=h";
metricRight = "=h";
unicode = 109;
},
{
glyphname = n;
lastChange = "2025-03-24 00:03:37 +0000";
layers = (
{
background = {
hints = (
{
name = _corner.ROUND;
type = Corner;
},
{
name = _corner.ROUND;
options = 2;
scale = (-0.3,0.3);
type = Corner;
},
{
name = _corner.ROUND;
options = 2;
scale = (-0.3,0.3);
type = Corner;
},
{
name = _corner.ROUND;
type = Corner;
},
{
name = _corner.ROUND;
options = 2;
scale = (-0.3,0.3);
type = Corner;
},
{
name = _corner.ROUND;
options = 2;
scale = (-0.3,0.3);
type = Corner;
},
{
name = _corner.ROUND;
type = Corner;
},
{
name = _corner.ROUND;
options = 2;
scale = (-0.3,0.3);
type = Corner;
},
{
name = _corner.ROUND;
options = 2;
scale = (-0.3,0.3);
type = Corner;
},
{
name = _corner.ROUND;
type = Corner;
},
{
name = _corner.ROUND;
options = 2;
scale = (-0.3,0.3);
type = Corner;
},
{
name = _corner.ROUND;
options = 2;
scale = (-0.3,0.3);
type = Corner;
},
{
name = _corner.ROUND;
type = Corner;
},
{
name = _corner.ROUND;
options = 2;
scale = (-0.3,0.3);
type = Corner;
},
{
name = _corner.ROUND;
options = 2;
scale = (-0.3,0.3);
type = Corner;
},
{
name = _segment.CUT;
options = 1;
origin = (0,1);
scale = (-1,1);
type = Segment;
},
{
name = _corner.ROUND;
origin = (0,5);
scale = (0.3,0.3);
type = Corner;
},
{
name = _corner.ROUND;
origin = (0,6);
scale = (0.3,0.3);
type = Corner;
},
{
name = _corner.ROUND;
origin = (0,9);
type = Corner;
}
);
shapes = (
{
closed = 1;
nodes = (
(266,500,l),
(175,500,l),
(25,500,l),
(25,0,l),
(175,0,l),
(175,390,l),
(260,390,l),
(260,0,l),
(410,0,l),
(410,500,l)
);
}
);
};
hints = (
{
name = _segment.CUT;
options = 1;
origin = (0,1);
scale = (-1,1);
type = Segment;
},
{
name = _corner.ROUND;
origin = (0,5);
scale = (0.3,0.3);
type = Corner;
},
{
name = _corner.ROUND;
origin = (0,6);
scale = (0.3,0.3);
type = Corner;
},
{
name = _corner.ROUND;
origin = (0,9);
type = Corner;
}
);
layerId = m01;
shapes = (
{
closed = 1;
nodes = (
(266,500,l),
(175,500,l),
(25,500,l),
(25,0,l),
(175,0,l),
(175,390,l),
(260,390,l),
(260,0,l),
(410,0,l),
(410,500,l)
);
}
);
width = 435;
}
);
metricLeft = "=h";
metricRight = "=h";
unicode = 110;
},
{
glyphname = o;
lastChange = "2025-02-27 19:09:56 +0000";
layers = (
{
hints = (
{
name = _corner.ROUND;
origin = (0,3);
type = Corner;
},
{
name = _corner.ROUND;
options = 2;
origin = (1,2);
scale = (-0.3,0.3);
type = Corner;
},
{
name = _corner.ROUND;
options = 2;
origin = (1,3);
scale = (-0.3,0.3);
type = Corner;
},
{
name = _corner.ROUND;
origin = (0,2);
type = Corner;
},
{
name = _corner.ROUND;
origin = (0,0);
type = Corner;
},
{
name = _corner.ROUND;
origin = (0,1);
type = Corner;
},
{
name = _corner.ROUND;
origin = (1,1);
scale = (0.3,0.3);
type = Corner;
},
{
name = _corner.ROUND;
origin = (1,0);
scale = (0.3,0.3);
type = Corner;
}
);
layerId = m01;
shapes = (
{
closed = 1;
nodes = (
(25,500,l),
(25,0,l),
(410,0,l),
(410,500,l)
);
},
{
closed = 1;
nodes = (
(260,110,l),
(175,110,l),
(175,390,l),
(260,390,l)
);
}
);
width = 435;
}
);
metricLeft = h;
metricRight = h;
unicode = 111;
},
{
glyphname = p;
lastChange = "2025-03-24 00:03:45 +0000";
layers = (
{
hints = (
{
name = _segment.CUT;
options = 1;
origin = (0,1);
scale = (-1,1);
type = Segment;
},
{
name = _segment.CUT;
origin = (0,7);
type = Segment;
},
{
name = _corner.ROUND;
origin = (0,8);
type = Corner;
},
{
name = _corner.ROUND;
origin = (0,9);
type = Corner;
},
{
name = _corner.ROUND;
origin = (1,0);
scale = (0.3,0.3);
type = Corner;
},
{
name = _corner.ROUND;
origin = (1,1);
scale = (0.3,0.3);
type = Corner;
},
{
name = _corner.ROUND;
options = 2;
origin = (1,2);
scale = (-0.3,0.3);
type = Corner;
},
{
name = _corner.ROUND;
options = 2;
origin = (1,3);
scale = (-0.3,0.3);
type = Corner;
}
);
layerId = m01;
shapes = (
{
closed = 1;
nodes = (
(260,500,l),
(175,500,l),
(169,500,l),
(25,500,l),
(25,-200,l),
(175,-200,l),
(175,0,l),
(260,0,l),
(410,0,l),
(410,500,l)
);
},
{
closed = 1;
nodes = (
(260,110,l),
(175,110,l),
(175,390,l),
(260,390,l)
);
}
);
width = 435;
}
);
metricLeft = "=h";
metricRight = "=h";
unicode = 112;
},
{
glyphname = q;
lastChange = "2025-02-27 20:19:14 +0000";
layers = (
{
hints = (
{
name = _segment.CUT;
origin = (0,1);
type = Segment;
},
{
name = _corner.ROUND;
origin = (0,2);
type = Corner;
},
{
name = _corner.ROUND;
origin = (0,3);
type = Corner;
},
{
name = _segment.CUT;
options = 1;
origin = (0,5);
scale = (-1,1);
type = Segment;
},
{
name = _corner.ROUND;
origin = (1,0);
scale = (0.3,0.3);
type = Corner;
},
{
name = _corner.ROUND;
origin = (1,1);
scale = (0.3,0.3);
type = Corner;
},
{
name = _corner.ROUND;
options = 2;
origin = (1,2);
scale = (-0.3,0.3);
type = Corner;
},
{
name = _corner.ROUND;
options = 2;
origin = (1,3);
scale = (-0.3,0.3);
type = Corner;
}
);
layerId = m01;
shapes = (
{
closed = 1;
nodes = (
(260,500,l),
(169,500,l),
(25,500,l),
(25,0,l),
(166,0,l),
(260,0,l),
(260,-200,l),
(410,-200,l),
(410,0,l),
(410,500,l)
);
},
{
closed = 1;
nodes = (
(260,110,l),
(175,110,l),
(175,390,l),
(260,390,l)
);
}
);
width = 435;
}
);
metricLeft = "=h";
metricRight = "=h";
unicode = 113;
},
{
glyphname = r;
lastChange = "2025-03-13 18:23:22 +0000";
layers = (
{
hints = (
{
name = _corner.ROUND;
origin = (0,9);
type = Corner;
},
{
name = _corner.ROUND;
options = 2;
origin = (0,6);
scale = (-0.3,0.3);
type = Corner;
},
{
name = _corner.ROUND;
origin = (0,5);
scale = (0.3,0.3);
type = Corner;
},
{
name = _segment.CUT;
options = 1;
origin = (0,1);
scale = (-1,1);
type = Segment;
}
);
layerId = m01;
shapes = (
{
closed = 1;
nodes = (
(260,500,l),
(175,500,l),
(25,500,l),
(25,0,l),
(175,0,l),
(175,390,l),
(260,390,l),
(260,345,l),
(410,345,l),
(410,500,l)
);
}
);
width = 410;
}
);
metricLeft = "=h";
unicode = 114;
},
{
glyphname = s;
lastChange = "2025-02-28 20:53:34 +0000";
layers = (
{
hints = (
{
name = _corner.ROUND;
origin = (0,2);
scale = (0.3,0.3);
type = Corner;
},
{
name = _corner.ROUND;
options = 2;
origin = (0,3);
scale = (-0.3,0.3);
type = Corner;
},
{
name = _corner.ROUND;
origin = (0,6);
scale = (1.08,1.08);
type = Corner;
},
{
name = _corner.ROUND;
origin = (0,7);
type = Corner;
},
{
name = _corner.ROUND;
options = 2;
origin = (0,12);
scale = (-0.3,0.3);
type = Corner;
},
{
name = _corner.ROUND;
origin = (0,13);
scale = (0.3,0.3);
type = Corner;
},
{
name = _corner.ROUND;
origin = (0,16);
type = Corner;
},
{
name = _corner.ROUND;
origin = (0,17);
scale = (1.08,1.08);
type = Corner;
}
);
layerId = m01;
shapes = (
{
closed = 1;
nodes = (
(162,269,o),
(163,345,c),
(163,390,l),
(248,390,l),
(248,345,l),
(398,345,l),
(398,500,l),
(13,500,l),
(13,355,l),
(13,161,o),
(249,245,o),
(248,155,c),
(248,110,l),
(163,110,l),
(163,155,l),
(13,155,l),
(13,0,l),
(398,0,l),
(398,155,l),
(397,336,o)
);
}
);
width = 411;
}
);
metricLeft = "=h*.5";
metricRight = "=h*.5";
unicode = 115;
},
{
glyphname = t;
lastChange = "2025-02-27 19:17:40 +0000";
layers = (
{
hints = (
{
name = _corner.ROUND;
origin = (0,4);
scale = (0.3,0.3);
type = Corner;
},
{
name = _corner.ROUND;
origin = (0,0);
type = Corner;
}
);
layerId = m01;
shapes = (
{
closed = 1;
nodes = (
(76,0,l),
(226,0,l),
(296,0,l),
(296,110,l),
(226,110,l),
(226,700,l),
(76,700,l)
);
},
{
closed = 1;
nodes = (
(6,390,l),
(296,390,l),
(296,500,l),
(6,500,l)
);
}
);
width = 309;
}
);
metricLeft = "=h*.25";
metricRight = "=h*.5";
unicode = 116;
},
{
glyphname = u;
lastChange = "2025-02-27 20:19:56 +0000";
layers = (
{
background = {
hints = (
{
name = _corner.ROUND;
type = Corner;
},
{
name = _corner.ROUND;
options = 2;
scale = (-0.3,0.3);
type = Corner;
},
{
name = _corner.ROUND;
options = 2;
scale = (-0.3,0.3);
type = Corner;
},
{
name = _corner.ROUND;
origin = (0,4);
type = Corner;
},
{
name = _corner.ROUND;
options = 2;
origin = (1,2);
scale = (-0.3,0.3);
type = Corner;
},
{
name = _corner.ROUND;
options = 2;
origin = (1,3);
scale = (-0.3,0.3);
type = Corner;
}
);
shapes = (
{
closed = 1;
nodes = (
(259,0,l),
(409,0,l),
(409,500,l),
(24,500,l),
(24,0,l),
(168,0,l),
(200,0,o),
(236,16,o),
(259,40,c)
);
},
{
closed = 1;
nodes = (
(174,500,l),
(259,500,l),
(259,110,l),
(174,110,l)
);
}
);
};
hints = (
{
name = _segment.CUT;
options = 1;
origin = (0,0);
scale = (-1,1);
type = Segment;
},
{
name = _corner.ROUND;
origin = (0,4);
type = Corner;
},
{
name = _corner.ROUND;
options = 2;
origin = (1,2);
scale = (-0.3,0.3);
type = Corner;
},
{
name = _corner.ROUND;
options = 2;
origin = (1,3);
scale = (-0.3,0.3);
type = Corner;
}
);
layerId = m01;
shapes = (
{
closed = 1;
nodes = (
(260,0,l),
(410,0,l),
(410,500,l),
(25,500,l),
(25,0,l),
(169,0,l)
);
},
{
closed = 1;
nodes = (
(175,500,l),
(260,500,l),
(260,110,l),
(175,110,l)
);
}
);
width = 435;
}
);
metricLeft = "=h";
metricRight = "=h";
unicode = 117;
},
{
glyphname = v;
lastChange = "2025-02-27 19:18:14 +0000";
layers = (
{
background = {
shapes = (
{
closed = 1;
nodes = (
(6,500,l),
(126,0,l),
(226,0,l),
(156,500,l)
);
},
{
closed = 1;
nodes = (
(176,0,l),
(276,0,l),
(396,500,l),
(246,500,l)
);
}
);
};
layerId = m01;
shapes = (
{
closed = 1;
nodes = (
(6,500,l),
(126,0,l),
(226,0,l),
(156,500,l)
);
},
{
closed = 1;
nodes = (
(176,0,l),
(276,0,l),
(396,500,l),
(246,500,l)
);
}
);
width = 402;
}
);
metricLeft = "=h*.25";
metricRight = "=h*.25";
unicode = 118;
},
{
glyphname = w;
lastChange = "2025-02-27 19:18:30 +0000";
layers = (
{
layerId = m01;
shapes = (
{
closed = 1;
nodes = (
(6,500,l),
(126,0,l),
(226,0,l),
(156,500,l)
);
},
{
closed = 1;
nodes = (
(176,0,l),
(276,0,l),
(346,500,l),
(246,500,l)
);
},
{
closed = 1;
nodes = (
(296,500,l),
(366,0,l),
(466,0,l),
(396,500,l)
);
},
{
closed = 1;
nodes = (
(416,0,l),
(516,0,l),
(636,500,l),
(486,500,l)
);
}
);
width = 642;
}
);
metricLeft = "=h*.25";
metricRight = "=h*.25";
unicode = 119;
},
{
glyphname = x;
lastChange = "2025-02-27 19:18:48 +0000";
layers = (
{
background = {
shapes = (
{
closed = 1;
nodes = (
(248,0,l),
(398,0,l),
(163,500,l),
(13,500,l)
);
},
{
closed = 1;
nodes = (
(13,0,l),
(163,0,l),
(398,500,l),
(248,500,l)
);
}
);
};
layerId = m01;
shapes = (
{
closed = 1;
nodes = (
(248,0,l),
(398,0,l),
(163,500,l),
(13,500,l)
);
},
{
closed = 1;
nodes = (
(13,0,l),
(163,0,l),
(398,500,l),
(248,500,l)
);
}
);
width = 411;
}
);
metricLeft = "=h*.5";
metricRight = "=h*.5";
unicode = 120;
},
{
glyphname = y;
lastChange = "2025-02-28 21:38:00 +0000";
layers = (
{
hints = (
{
name = _corner.ROUND;
origin = (1,7);
scale = (0.3,0.3);
type = Corner;
},
{
name = _corner.ROUND;
origin = (1,11);
type = Corner;
}
);
layerId = m01;
shapes = (
{
closed = 0;
nodes = (
(283,0,l)
);
},
{
closed = 1;
nodes = (
(283,0,l),
(403,500,l),
(253,500,l),
(208,179,l),
(163,500,l),
(13,500,l),
(133,0,l),
(153,-90,l),
(17,-90,l),
(17,-200,l),
(87,-200,l),
(237,-200,l)
);
}
);
width = 409;
}
);
metricLeft = "=h*.5";
metricRight = "=h*.25";
unicode = 121;
},
{
glyphname = z;
lastChange = "2025-03-24 00:04:39 +0000";
layers = (
{
layerId = m01;
shapes = (
{
closed = 1;
nodes = (
(13,390,l),
(218,390,l),
(13,110,l),
(13,0,l),
(398,0,l),
(398,110,l),
(193,110,l),
(398,390,l),
(398,500,l),
(13,500,l)
);
}
);
width = 423;
}
);
metricLeft = "=h*.5";
metricRight = "=h";
unicode = 122;
},
{
glyphname = zero;
lastChange = "2025-02-27 21:51:32 +0000";
layers = (
{
hints = (
{
name = _corner.ROUND;
origin = (0,0);
type = Corner;
},
{
name = _corner.ROUND;
origin = (0,1);
type = Corner;
},
{
name = _corner.ROUND;
origin = (0,2);
type = Corner;
},
{
name = _corner.ROUND;
origin = (0,3);
type = Corner;
},
{
name = _corner.ROUND;
origin = (1,0);
scale = (0.3,0.3);
type = Corner;
},
{
name = _corner.ROUND;
origin = (1,1);
scale = (0.3,0.3);
type = Corner;
},
{
name = _corner.ROUND;
options = 2;
origin = (1,2);
scale = (-0.3,0.3);
type = Corner;
},
{
name = _corner.ROUND;
options = 2;
origin = (1,3);
scale = (-0.3,0.3);
type = Corner;
}
);
layerId = m01;
shapes = (
{
closed = 1;
nodes = (
(20,0,l),
(410,0,l),
(410,700,l),
(20,700,l)
);
},
{
closed = 1;
nodes = (
(260,110,l),
(170,110,l),
(170,590,l),
(260,590,l)
);
}
);
width = 430;
}
);
metricLeft = "=O";
metricRight = "=O";
unicode = 48;
},
{
glyphname = one;
lastChange = "2025-02-28 19:53:42 +0000";
layers = (
{
layerId = m01;
shapes = (
{
closed = 1;
nodes = (
(287,700,l),
(137,700,l),
(137,0,l),
(287,0,l)
);
},
{
closed = 1;
nodes = (
(88,496,l),
(214,622,l),
(136,700,l),
(10,574,l)
);
}
);
width = 318;
}
);
metricLeft = "=O*0.5*-1";
metricRight = "=H*1.25";
unicode = 49;
},
{
glyphname = two;
lastChange = "2025-02-28 18:53:41 +0000";
layers = (
{
hints = (
{
name = _corner.ROUND;
origin = (0,15);
scale = (0.3,0.3);
type = Corner;
},
{
name = _corner.ROUND;
options = 2;
origin = (0,14);
scale = (-0.3,0.3);
type = Corner;
},
{
name = _corner.ROUND;
origin = (0,11);
scale = (1.08,1.08);
type = Corner;
},
{
name = _corner.ROUND;
origin = (0,10);
type = Corner;
}
);
layerId = m01;
shapes = (
{
closed = 1;
nodes = (
(261,349,o),
(20,326,o),
(20,135,c),
(20,0,l),
(410,0,l),
(410,135,l),
(170,135,l),
(169,255,o),
(410,271,o),
(410,425,c),
(410,700,l),
(20,700,l),
(20,445,l),
(170,445,l),
(170,590,l),
(260,590,l),
(260,445,l)
);
}
);
width = 430;
}
);
metricLeft = "=O";
metricRight = "=O";
unicode = 50;
},
{
glyphname = three;
lastChange = "2025-02-28 19:40:23 +0000";
layers = (
{
hints = (
{
name = _corner.ROUND;
origin = (1,2);
type = Corner;
},
{
name = _corner.ROUND;
origin = (1,5);
scale = (1.08,1.08);
type = Corner;
},
{
name = _corner.ROUND;
origin = (1,12);
scale = (0.3,0.3);
type = Corner;
},
{
name = _corner.ROUND;
options = 2;
origin = (1,11);
scale = (-0.3,0.3);
type = Corner;
},
{
name = _corner.ROUND;
origin = (1,2);
scale = (1.08,1.08);
type = Corner;
},
{
name = _corner.ROUND;
origin = (1,5);
scale = (0.8,0.8);
type = Corner;
},
{
name = _corner.ROUND;
origin = (1,16);
scale = (0.3,0.3);
type = Corner;
},
{
name = _corner.ROUND;
options = 2;
origin = (1,15);
scale = (-0.3,0.3);
type = Corner;
},
{
name = _corner.ROUND;
origin = (1,6);
type = Corner;
},
{
name = _corner.ROUND;
origin = (1,1);
type = Corner;
},
{
name = _corner.ROUND;
origin = (1,10);
scale = (0.3,0.3);
type = Corner;
},
{
name = _corner.ROUND;
origin = (1,17);
scale = (0.3,0.3);
type = Corner;
},
{
name = _segment.DOUBLECUT;
origin = (1,4);
type = Segment;
}
);
layerId = m01;
shapes = (
{
closed = 0;
nodes = (
(20,200,l),
(170,200,l)
);
},
{
closed = 1;
nodes = (
(20,200,l),
(20,0,l),
(410,0,l),
(410,275,l),
(410,429,l),
(410,700,l),
(20,700,l),
(20,546,l),
(20,500,l),
(170,500,l),
(170,590,l),
(260,590,l),
(260,405,l),
(155,405,l),
(155,295,l),
(260,295,l),
(260,110,l),
(170,110,l),
(170,200,l)
);
}
);
width = 430;
}
);
metricLeft = "=O";
metricRight = "=O";
unicode = 51;
},
{
glyphname = four;
lastChange = "2025-02-28 20:25:18 +0000";
layers = (
{
background = {
shapes = (
{
closed = 1;
nodes = (
(370,700,l),
(220,700,l),
(220,0,l),
(370,0,l)
);
},
{
closed = 1;
nodes = (
(20,163,l),
(410,163,l),
(410,273,l),
(20,273,l)
);
}
);
};
layerId = m01;
shapes = (
{
closed = 1;
nodes = (
(370,700,l),
(220,700,l),
(220,0,l),
(370,0,l)
);
},
{
closed = 1;
nodes = (
(20,163,l),
(410,163,l),
(410,273,l),
(141,273,l),
(320,655,l),
(220,701,l),
(20,273,l)
);
}
);
width = 430;
}
);
metricLeft = "=O";
metricRight = "=O";
unicode = 52;
},
{
glyphname = five;
lastChange = "2025-02-28 20:12:09 +0000";
layers = (
{
background = {
hints = (
{
name = _corner.ROUND;
type = Corner;
},
{
name = _corner.ROUND;
type = Corner;
},
{
name = _segment.CUT;
options = 1;
scale = (-1,1);
type = Segment;
},
{
name = _corner.ROUND;
type = Corner;
},
{
name = _corner.ROUND;
scale = (0.3,0.3);
type = Corner;
},
{
name = _corner.ROUND;
scale = (0.3,0.3);
type = Corner;
},
{
name = _corner.ROUND;
options = 2;
scale = (-0.3,0.3);
type = Corner;
},
{
name = _corner.ROUND;
options = 2;
scale = (-0.3,0.3);
type = Corner;
},
{
name = _corner.ROUND;
type = Corner;
},
{
name = _corner.ROUND;
type = Corner;
},
{
name = _segment.CUT;
options = 1;
scale = (-1,1);
type = Segment;
},
{
name = _corner.ROUND;
type = Corner;
},
{
name = _corner.ROUND;
scale = (0.3,0.3);
type = Corner;
},
{
name = _corner.ROUND;
scale = (0.3,0.3);
type = Corner;
},
{
name = _corner.ROUND;
options = 2;
scale = (-0.3,0.3);
type = Corner;
},
{
name = _corner.ROUND;
options = 2;
scale = (-0.3,0.3);
type = Corner;
},
{
name = _corner.ROUND;
type = Corner;
},
{
name = _corner.ROUND;
type = Corner;
},
{
name = _segment.CUT;
options = 1;
scale = (-1,1);
type = Segment;
},
{
name = _corner.ROUND;
type = Corner;
},
{
name = _corner.ROUND;
scale = (0.3,0.3);
type = Corner;
},
{
name = _corner.ROUND;
scale = (0.3,0.3);
type = Corner;
},
{
name = _corner.ROUND;
options = 2;
scale = (-0.3,0.3);
type = Corner;
},
{
name = _corner.ROUND;
options = 2;
scale = (-0.3,0.3);
type = Corner;
},
{
name = _corner.ROUND;
origin = (0,1);
type = Corner;
},
{
name = _corner.ROUND;
origin = (0,2);
type = Corner;
},
{
name = _corner.ROUND;
origin = (0,3);
type = Corner;
},
{
name = _segment.CUT;
options = 1;
origin = (0,5);
scale = (-1,1);
type = Segment;
},
{
name = _corner.ROUND;
origin = (0,12);
scale = (0.3,0.3);
type = Corner;
},
{
name = _corner.ROUND;
origin = (0,13);
scale = (0.3,0.3);
type = Corner;
},
{
name = _corner.ROUND;
options = 2;
origin = (0,14);
scale = (-0.3,0.3);
type = Corner;
},
{
name = _corner.ROUND;
options = 2;
origin = (0,15);
scale = (-0.3,0.3);
type = Corner;
}
);
shapes = (
{
closed = 0;
nodes = (
(20,200,l),
(20,0,l),
(405,0,l),
(405,500,l),
(264,500,l),
(170,500,l),
(170,590,l),
(375,590,l),
(375,700,l),
(20,700,l),
(20,350,l),
(170,350,l),
(170,390,l),
(255,390,l),
(255,110,l),
(170,110,l),
(170,200,l),
(20,200,l)
);
}
);
};
hints = (
{
name = _corner.ROUND;
origin = (1,1);
type = Corner;
},
{
name = _corner.ROUND;
origin = (1,2);
type = Corner;
},
{
name = _corner.ROUND;
origin = (1,3);
type = Corner;
},
{
name = _segment.CUT;
options = 1;
origin = (1,5);
scale = (-1,1);
type = Segment;
},
{
name = _corner.ROUND;
origin = (1,12);
scale = (0.3,0.3);
type = Corner;
},
{
name = _corner.ROUND;
origin = (1,13);
scale = (0.3,0.3);
type = Corner;
},
{
name = _corner.ROUND;
options = 2;
origin = (1,14);
scale = (-0.3,0.3);
type = Corner;
},
{
name = _corner.ROUND;
options = 2;
origin = (1,15);
scale = (-0.3,0.3);
type = Corner;
}
);
layerId = m01;
shapes = (
{
closed = 0;
nodes = (
(20,200,l),
(170,200,l)
);
},
{
closed = 1;
nodes = (
(20,200,l),
(20,0,l),
(405,0,l),
(405,500,l),
(264,500,l),
(170,500,l),
(170,590,l),
(375,590,l),
(375,700,l),
(20,700,l),
(20,350,l),
(170,350,l),
(170,390,l),
(255,390,l),
(255,110,l),
(170,110,l),
(170,200,l)
);
}
);
width = 425;
}
);
metricLeft = "=O";
metricRight = "=O";
unicode = 53;
},
{
glyphname = six;
lastChange = "2025-02-28 20:41:20 +0000";
layers = (
{
background = {
hints = (
{
name = _corner.ROUND;
type = Corner;
},
{
name = _corner.ROUND;
type = Corner;
},
{
name = _segment.CUT;
options = 1;
scale = (-1,1);
type = Segment;
},
{
name = _corner.ROUND;
type = Corner;
},
{
name = _corner.ROUND;
scale = (0.3,0.3);
type = Corner;
},
{
name = _corner.ROUND;
scale = (0.3,0.3);
type = Corner;
},
{
name = _corner.ROUND;
options = 2;
scale = (-0.3,0.3);
type = Corner;
},
{
name = _corner.ROUND;
options = 2;
scale = (-0.3,0.3);
type = Corner;
},
{
name = _corner.ROUND;
origin = (0,0);
scale = (0.3,0.3);
type = Corner;
},
{
name = _corner.ROUND;
origin = (0,1);
scale = (0.3,0.3);
type = Corner;
},
{
name = _segment.CUT;
origin = (0,3);
scale = (-1,-1);
type = Segment;
},
{
name = _corner.ROUND;
origin = (0,4);
type = Corner;
},
{
name = _corner.ROUND;
origin = (0,5);
type = Corner;
},
{
name = _corner.ROUND;
origin = (0,6);
type = Corner;
},
{
name = _corner.ROUND;
origin = (0,7);
type = Corner;
},
{
name = _corner.ROUND;
origin = (0,8);
type = Corner;
},
{
name = _corner.ROUND;
options = 2;
origin = (1,0);
scale = (-0.3,0.3);
type = Corner;
},
{
name = _corner.ROUND;
origin = (1,1);
scale = (0.3,0.3);
type = Corner;
},
{
name = _corner.ROUND;
origin = (1,2);
scale = (0.3,0.3);
type = Corner;
},
{
name = _corner.ROUND;
options = 2;
origin = (1,3);
scale = (-0.3,0.3);
type = Corner;
}
);
shapes = (
{
closed = 1;
nodes = (
(255,591,l),
(170,591,l),
(170,500,l),
(264,500,l),
(405,500,l),
(405,0,l),
(20,0,l),
(20,700,l),
(395,700,l),
(395,551,l),
(255,551,l)
);
},
{
closed = 1;
nodes = (
(255,110,l),
(255,390,l),
(170,390,l),
(170,110,l)
);
}
);
};
hints = (
{
name = _corner.ROUND;
origin = (0,5);
type = Corner;
},
{
name = _corner.ROUND;
origin = (0,4);
type = Corner;
},
{
name = _corner.ROUND;
origin = (0,6);
type = Corner;
},
{
name = _corner.ROUND;
origin = (1,2);
scale = (0.3,0.3);
type = Corner;
},
{
name = _corner.ROUND;
origin = (1,1);
scale = (0.3,0.3);
type = Corner;
},
{
name = _corner.ROUND;
options = 2;
origin = (1,0);
scale = (-0.3,0.3);
type = Corner;
},
{
name = _corner.ROUND;
options = 2;
origin = (1,3);
scale = (-0.3,0.3);
type = Corner;
},
{
name = _corner.ROUND;
origin = (0,7);
type = Corner;
},
{
name = _corner.ROUND;
origin = (0,8);
type = Corner;
},
{
name = _corner.ROUND;
origin = (0,0);
scale = (0.3,0.3);
type = Corner;
},
{
name = _corner.ROUND;
origin = (0,1);
scale = (0.3,0.3);
type = Corner;
},
{
name = _segment.CUT;
origin = (0,3);
scale = (-1,-1);
type = Segment;
}
);
layerId = m01;
shapes = (
{
closed = 1;
nodes = (
(255,591,l),
(170,591,l),
(170,500,l),
(264,500,l),
(405,500,l),
(405,0,l),
(20,0,l),
(20,700,l),
(395,700,l),
(395,551,l),
(255,551,l)
);
},
{
closed = 1;
nodes = (
(255,110,l),
(255,390,l),
(170,390,l),
(170,110,l)
);
}
);
width = 425;
}
);
metricLeft = "=O";
metricRight = "=O";
unicode = 54;
},
{
glyphname = seven;
lastChange = "2025-02-28 20:40:29 +0000";
layers = (
{
layerId = m01;
shapes = (
{
closed = 1;
nodes = (
(375,590,l),
(375,700,l),
(15,700,l),
(15,590,l),
(225,590,l),
(65,0,l),
(215,0,l)
);
}
);
width = 390;
}
);
metricLeft = "=O*.75";
metricRight = "=O*.75";
unicode = 55;
},
{
glyphname = eight;
lastChange = "2025-03-24 00:06:03 +0000";
layers = (
{
hints = (
{
name = _corner.ROUND;
origin = (0,8);
type = Corner;
},
{
name = _corner.ROUND;
origin = (0,0);
scale = (1.08,1.08);
type = Corner;
},
{
name = _segment.DOUBLECUT;
origin = (0,2);
type = Segment;
},
{
name = _corner.ROUND;
origin = (0,3);
scale = (0.8,0.8);
type = Corner;
},
{
name = _corner.ROUND;
origin = (0,4);
type = Corner;
},
{
name = _corner.ROUND;
origin = (2,0);
scale = (0.3,0.3);
type = Corner;
},
{
name = _corner.ROUND;
options = 2;
origin = (2,1);
scale = (-0.3,0.3);
type = Corner;
},
{
name = _corner.ROUND;
origin = (2,2);
scale = (0.3,0.3);
type = Corner;
},
{
name = _corner.ROUND;
options = 2;
origin = (1,1);
scale = (-0.3,0.3);
type = Corner;
},
{
name = _corner.ROUND;
origin = (1,2);
scale = (0.3,0.3);
type = Corner;
},
{
name = _corner.ROUND;
origin = (1,3);
scale = (0.3,0.3);
type = Corner;
},
{
name = _corner.ROUND;
origin = (2,0);
scale = (0.3,0.3);
type = Corner;
},
{
name = _corner.ROUND;
origin = (2,3);
scale = (0.3,0.3);
type = Corner;
},
{
name = _corner.ROUND;
origin = (1,0);
scale = (0.3,0.3);
type = Corner;
},
{
name = _segment.DOUBLECUT;
origin = (0,7);
type = Segment;
}
);
layerId = m01;
shapes = (
{
closed = 1;
nodes = (
(410,0,l),
(410,255,l),
(410,449,l),
(410,700,l),
(20,700,l),
(20,546,l),
(20,449,l),
(20,255,l),
(20,0,l)
);
},
{
closed = 1;
nodes = (
(170,295,l),
(260,295,l),
(260,110,l),
(170,110,l)
);
},
{
closed = 1;
nodes = (
(170,590,l),
(260,590,l),
(260,405,l),
(170,405,l)
);
}
);
width = 430;
}
);
metricLeft = "=O";
metricRight = "=O";
unicode = 56;
},
{
glyphname = nine;
lastChange = "2025-02-28 20:42:00 +0000";
layers = (
{
hints = (
{
name = _corner.ROUND;
origin = (0,0);
scale = (0.3,0.3);
type = Corner;
},
{
name = _corner.ROUND;
origin = (0,1);
scale = (0.3,0.3);
type = Corner;
},
{
name = _segment.CUT;
origin = (0,3);
scale = (-1,-1);
type = Segment;
},
{
name = _corner.ROUND;
origin = (0,4);
type = Corner;
},
{
name = _corner.ROUND;
origin = (0,5);
type = Corner;
},
{
name = _corner.ROUND;
origin = (0,6);
type = Corner;
},
{
name = _corner.ROUND;
origin = (0,7);
type = Corner;
},
{
name = _corner.ROUND;
origin = (0,8);
type = Corner;
},
{
name = _corner.ROUND;
options = 2;
origin = (1,0);
scale = (-0.3,0.3);
type = Corner;
},
{
name = _corner.ROUND;
origin = (1,1);
scale = (0.3,0.3);
type = Corner;
},
{
name = _corner.ROUND;
origin = (1,2);
scale = (0.3,0.3);
type = Corner;
},
{
name = _corner.ROUND;
options = 2;
origin = (1,3);
scale = (-0.3,0.3);
type = Corner;
}
);
layerId = m01;
shapes = (
{
closed = 1;
nodes = (
(170,108,l),
(255,108,l),
(255,199,l),
(161,199,l),
(20,199,l),
(20,699,l),
(405,699,l),
(405,-1,l),
(30,-1,l),
(30,148,l),
(170,148,l)
);
},
{
closed = 1;
nodes = (
(170,589,l),
(170,309,l),
(255,309,l),
(255,589,l)
);
}
);
width = 425;
}
);
metricLeft = "=O";
metricRight = "=O";
unicode = 57;
},
{
glyphname = period;
lastChange = "2025-02-28 21:48:34 +0000";
layers = (
{
layerId = m01;
shapes = (
{
closed = 1;
nodes = (
(135,110,l),
(25,110,l),
(25,0,l),
(135,0,l)
);
}
);
width = 160;
}
);
metricLeft = "=h";
metricRight = "=h";
unicode = 46;
},
{
glyphname = comma;
lastChange = "2025-02-28 22:09:40 +0000";
layers = (
{
hints = (
{
name = _corner.ROUND;
origin = (0,1);
scale = (0.3,0.3);
type = Corner;
},
{
name = _corner.ROUND;
origin = (0,5);
type = Corner;
}
);
layerId = m01;
shapes = (
{
closed = 1;
nodes = (
(75,50,l),
(75,-40,l),
(5,-40,l),
(5,-150,l),
(35,-150,l),
(185,-150,l),
(185,50,l)
);
},
{
closed = 1;
nodes = (
(185,110,l),
(75,110,l),
(75,0,l),
(185,0,l)
);
}
);
width = 190;
}
);
metricLeft = "=O*.25";
metricRight = "=O*.25";
unicode = 44;
},
{
glyphname = hyphen;
lastChange = "2025-02-28 22:11:38 +0000";
layers = (
{
layerId = m01;
shapes = (
{
closed = 1;
nodes = (
(320,305,l),
(20,305,l),
(20,195,l),
(320,195,l)
);
}
);
width = 340;
}
);
metricLeft = "=O";
metricRight = "=O";
unicode = 45;
},
{
glyphname = _segment.CUT;
lastChange = "2025-02-27 19:55:19 +0000";
layers = (
{
anchors = (
{
name = end;
pos = (366,0);
},
{
name = start;
pos = (275,0);
}
);
layerId = m01;
shapes = (
{
closed = 0;
nodes = (
(275,0,l),
(275,40,l),
(298,16,o),
(334,0,o),
(366,0,c)
);
}
);
width = 600;
}
);
},
{
glyphname = _segment.DOUBLECUT;
lastChange = "2025-02-28 19:33:39 +0000";
layers = (
{
anchors = (
{
name = end;
pos = (402,0);
},
{
name = start;
pos = (198,0);
}
);
layerId = m01;
shapes = (
{
closed = 0;
nodes = (
(198,0,l),
(243,0,o),
(281,26,o),
(299,66,c),
(317,27,o),
(356,0,o),
(402,0,cs)
);
}
);
width = 600;
}
);
},
